<?xml version="1.0" encoding="UTF-8"?>
<svg width="44px" height="44px" viewBox="0 0 44 44" version="1.1" xmlns="http://www.w3.org/2000/svg" xmlns:xlink="http://www.w3.org/1999/xlink">
    <!-- Generator: Sketch 42 (36781) - http://www.bohemiancoding.com/sketch -->
    <title>01d</title>
    <desc>Created with Sketch.</desc>
    <defs></defs>
    <g id="Page-1" stroke="none" stroke-width="1" fill="none" fill-rule="evenodd">
        <g id="Brancott-Weather-Icons" transform="translate(-217.000000, -383.000000)" stroke="#FFFFFF" stroke-width="2" stroke-linejoin="round">
            <g id="01d" transform="translate(218.000000, 384.000000)">
                <path d="M29.13173,12.868269 C33.62275,17.359299 33.62275,24.6407 29.13173,29.13173 C24.6407,33.62275 17.359299,33.62275 12.868269,29.13173 C8.37724,24.6407 8.37724,17.359299 12.868269,12.868269 C17.359299,8.37724 24.6407,8.37724 29.13173,12.868269" id="Stroke-1"></path>
                <path d="M38,21 L41,21" id="Stroke-3" stroke-linecap="round"></path>
                <path d="M38,21 L42,21" id="Stroke-5" stroke-linecap="round"></path>
                <path d="M0,21 L3,21" id="Stroke-7" stroke-linecap="round"></path>
                <path d="M0,21 L4,21" id="Stroke-9" stroke-linecap="round"></path>
                <path d="M21,38 L21,41" id="Stroke-11" stroke-linecap="round"></path>
                <path d="M21,38 L21,42" id="Stroke-13" stroke-linecap="round"></path>
                <path d="M21,0 L21,3" id="Stroke-15" stroke-linecap="round"></path>
                <path d="M21,0 L21,4" id="Stroke-17" stroke-linecap="round"></path>
                <path d="M32.8,32.8 L35.4,35.4" id="Stroke-19" stroke-linecap="round"></path>
                <path d="M32.8,32.8 L36,36" id="Stroke-21" stroke-linecap="round"></path>
                <path d="M6,6 L8.6,8.6" id="Stroke-23" stroke-linecap="round"></path>
                <path d="M6,6 L9.2,9.2" id="Stroke-25" stroke-linecap="round"></path>
                <path d="M9.2,32.8 L6.6,35.4" id="Stroke-27" stroke-linecap="round"></path>
                <path d="M9.2,32.8 L6,36" id="Stroke-29" stroke-linecap="round"></path>
                <path d="M36,6 L33.4,8.6" id="Stroke-31" stroke-linecap="round"></path>
                <path d="M36,6 L32.8,9.2" id="Stroke-33" stroke-linecap="round"></path>
            </g>
        </g>
        <g id="Artboard" transform="translate(-418.000000, -1314.000000)"></g>
    </g>
</svg>