<?xml version="1.0" encoding="UTF-8"?>
<svg width="46px" height="37px" viewBox="0 0 46 37" version="1.1" xmlns="http://www.w3.org/2000/svg" xmlns:xlink="http://www.w3.org/1999/xlink">
    <!-- Generator: Sketch 42 (36781) - http://www.bohemiancoding.com/sketch -->
    <title>02d</title>
    <desc>Created with Sketch.</desc>
    <defs></defs>
    <g id="Page-1" stroke="none" stroke-width="1" fill="none" fill-rule="evenodd">
        <g id="Brancott-Weather-Icons" transform="translate(-466.000000, -383.000000)" stroke-linecap="round" stroke="#FFFFFF" stroke-width="2" stroke-linejoin="round">
            <g id="02d" transform="translate(467.000000, 384.000000)">
                <path d="M7.8,18.4 C5.1,15.2 5.5,10.5 8.6,7.8 C11.7,5.1 16.5,5.5 19.2,8.6" id="Stroke-1"></path>
                <path d="M4.1,7.5 L1.7,6.4" id="Stroke-3"></path>
                <path d="M16.3,2.9 L17.1,0.5" id="Stroke-5"></path>
                <path d="M2.8,15 L0.3,15.3" id="Stroke-7"></path>
                <path d="M9.2,2.9 L8.2,0.5" id="Stroke-9"></path>
                <path d="M40,17.7 L40,17 C40,10.4 34.6,5 28,5 C21.4,5 16,10.4 16,17 C16,18.2 16.2,19.4 16.5,20.5 C15,19 12.9,18 10.5,18 C5.8,18 2,21.8 2,26.5 C2,31.2 5.8,35 10.5,35 L34.5,35 C39.7,35 44,30.7 44,25.5 C44,22.3 42.4,19.5 40,17.7 Z" id="Stroke-11"></path>
            </g>
        </g>
        <g id="Artboard" transform="translate(-667.000000, -1314.000000)"></g>
    </g>
</svg>