<?xml version="1.0" encoding="UTF-8"?>
<svg width="46px" height="36px" viewBox="0 0 46 36" version="1.1" xmlns="http://www.w3.org/2000/svg" xmlns:xlink="http://www.w3.org/1999/xlink">
    <!-- Generator: Sketch 42 (36781) - http://www.bohemiancoding.com/sketch -->
    <title>02n</title>
    <desc>Created with Sketch.</desc>
    <defs></defs>
    <g id="Page-1" stroke="none" stroke-width="1" fill="none" fill-rule="evenodd">
        <g id="Brancott-Weather-Icons" transform="translate(-546.000000, -384.000000)" stroke-linecap="round" stroke="#FFFFFF" stroke-width="2" stroke-linejoin="round">
            <g id="02n" transform="translate(547.000000, 385.000000)">
                <path d="M7.77121377,17 C5.1117644,13.9027814 5.5057569,9.3537416 8.55919877,6.74046341 C11.6126406,4.12718522 16.3405506,4.51433754 19,7.51476806" id="Stroke-1"></path>
                <path d="M4,6 L2,5" id="Stroke-3"></path>
                <path d="M16,2 L16.8,0" id="Stroke-5"></path>
                <path d="M3,14 L0,14.3" id="Stroke-7"></path>
                <path d="M9,2 L8,0" id="Stroke-9"></path>
                <path d="M40,16.7 L40,16 C40,9.4 34.6,4 28,4 C21.4,4 16,9.4 16,16 C16,17.2 16.2,18.4 16.5,19.5 C15,18 12.9,17 10.5,17 C5.8,17 2,20.8 2,25.5 C2,30.2 5.8,34 10.5,34 L34.5,34 C39.7,34 44,29.7 44,24.5 C44,21.3 42.4,18.5 40,16.7 Z" id="Stroke-11"></path>
            </g>
        </g>
        <g id="Artboard" transform="translate(-747.000000, -1315.000000)"></g>
    </g>
</svg>