<?xml version="1.0" encoding="UTF-8"?>
<svg width="44px" height="31px" viewBox="0 0 44 31" version="1.1" xmlns="http://www.w3.org/2000/svg" xmlns:xlink="http://www.w3.org/1999/xlink">
    <!-- Generator: Sketch 42 (36781) - http://www.bohemiancoding.com/sketch -->
    <title>04d</title>
    <desc>Created with Sketch.</desc>
    <defs></defs>
    <g id="Page-1" stroke="none" stroke-width="1" fill="none" fill-rule="evenodd">
        <g id="Brancott-Weather-Icons" transform="translate(-216.000000, -549.000000)" stroke-linecap="round" stroke="#FFFFFF" stroke-width="2" stroke-linejoin="round">
            <g id="04d" transform="translate(217.000000, 550.000000)">
                <path d="M37,11.9 L37,11.5 C37,5.1 31.9,0 25.5,0 C19.1,0 14,5.1 14,11.5 C14,12.5 14.1,13.4 14.4,14.4 C12.9,12.9 10.8,12 8.5,12 C3.8,12 0,15.8 0,20.5 C0,25.2 3.8,29 8.5,29 L33,29 C38,29 42,25 42,20 C42,16.5 40,13.4 37,11.9 Z" id="Stroke-1"></path>
                <path d="M33,11 C34.8,11 36.4,11.5 37.8,12.4" id="Stroke-3"></path>
            </g>
        </g>
        <g id="Artboard" transform="translate(-417.000000, -1480.000000)"></g>
    </g>
</svg>