<?xml version="1.0" encoding="UTF-8"?>
<svg width="44px" height="42px" viewBox="0 0 44 42" version="1.1" xmlns="http://www.w3.org/2000/svg" xmlns:xlink="http://www.w3.org/1999/xlink">
    <!-- Generator: Sketch 42 (36781) - http://www.bohemiancoding.com/sketch -->
    <title>11d</title>
    <desc>Created with Sketch.</desc>
    <defs></defs>
    <g id="Page-1" stroke="none" stroke-width="1" fill="none" fill-rule="evenodd">
        <g id="Brancott-Weather-Icons" transform="translate(-214.000000, -724.000000)" stroke-linecap="round" stroke="#FFFFFF" stroke-width="2" stroke-linejoin="round">
            <g id="11d" transform="translate(215.000000, 725.000000)">
                <path d="M32.5,30 C37.7,30 42,25.7 42,20.5 C42,17.3 40.4,14.5 38,12.7 L38,12 C38,5.4 32.6,0 26,0 C19.4,0 14,5.4 14,12 C14,13.2 14.2,14.4 14.5,15.5 C13,14 10.9,13 8.5,13 C3.8,13 0,16.8 0,21.5 C0,26.2 3.8,30 8.5,30" id="Stroke-1"></path>
                <polygon id="Stroke-3" points="19 19 15.4 29 20.2 28.5 17 40 26.1 26 22 26 27 19"></polygon>
            </g>
        </g>
        <g id="Artboard" transform="translate(-415.000000, -1655.000000)"></g>
    </g>
</svg>