<?xml version="1.0" encoding="UTF-8"?>
<svg width="45px" height="26px" viewBox="0 0 45 26" version="1.1" xmlns="http://www.w3.org/2000/svg" xmlns:xlink="http://www.w3.org/1999/xlink">
    <!-- Generator: Sketch 42 (36781) - http://www.bohemiancoding.com/sketch -->
    <title>50n</title>
    <desc>Created with Sketch.</desc>
    <defs></defs>
    <g id="Page-1" stroke="none" stroke-width="1" fill="none" fill-rule="evenodd">
        <g id="Brancott-Weather-Icons" transform="translate(-818.000000, -745.000000)" stroke-linecap="round" stroke="#FFFFFF" stroke-width="2" stroke-linejoin="round">
            <g id="50n" transform="translate(819.000000, 746.000000)">
                <path d="M0,0.9 C2.3,0.9 2.3,5.1 4.7,5.1 C7,5.1 7,0.9 9.4,0.9 C11.7,0.9 11.7,5.1 14.1,5.1 C16.4,5.1 16.4,0.9 18.8,0.9 C21.1,0.9 21.1,5.1 23.5,5.1 C25.8,5.1 25.8,0.9 28.2,0.9 C30.5,0.9 30.5,5.1 32.9,5.1 C35.2,5.1 35.2,0.9 37.6,0.9 C39.9,0.9 39.9,5.1 42.3,5.1" id="Stroke-1"></path>
                <path d="M0,6.9 C2.3,6.9 2.3,11.1 4.7,11.1 C7,11.1 7,6.9 9.4,6.9 C11.7,6.9 11.7,11.1 14.1,11.1 C16.4,11.1 16.4,6.9 18.8,6.9 C21.1,6.9 21.1,11.1 23.5,11.1 C25.8,11.1 25.8,6.9 28.2,6.9 C30.5,6.9 30.5,11.1 32.9,11.1 C35.2,11.1 35.2,6.9 37.6,6.9 C39.9,6.9 39.9,11.1 42.3,11.1" id="Stroke-1"></path>
                <path d="M0,12.9 C2.3,12.9 2.3,17.1 4.7,17.1 C7,17.1 7,12.9 9.4,12.9 C11.7,12.9 11.7,17.1 14.1,17.1 C16.4,17.1 16.4,12.9 18.8,12.9 C21.1,12.9 21.1,17.1 23.5,17.1 C25.8,17.1 25.8,12.9 28.2,12.9 C30.5,12.9 30.5,17.1 32.9,17.1 C35.2,17.1 35.2,12.9 37.6,12.9 C39.9,12.9 39.9,17.1 42.3,17.1" id="Stroke-1"></path>
                <path d="M0,18.9 C2.3,18.9 2.3,23.1 4.7,23.1 C7,23.1 7,18.9 9.4,18.9 C11.7,18.9 11.7,23.1 14.1,23.1 C16.4,23.1 16.4,18.9 18.8,18.9 C21.1,18.9 21.1,23.1 23.5,23.1 C25.8,23.1 25.8,18.9 28.2,18.9 C30.5,18.9 30.5,23.1 32.9,23.1 C35.2,23.1 35.2,18.9 37.6,18.9 C39.9,18.9 39.9,23.1 42.3,23.1" id="Stroke-1"></path>
            </g>
        </g>
        <g id="Artboard" transform="translate(-1019.000000, -1676.000000)"></g>
    </g>
</svg>