<?xml version="1.0" encoding="UTF-8" standalone="no"?>
<svg width="9px" height="16px" viewBox="0 0 9 16" version="1.1" xmlns="http://www.w3.org/2000/svg" xmlns:xlink="http://www.w3.org/1999/xlink">
    <!-- Generator: Sketch 41.2 (35397) - http://www.bohemiancoding.com/sketch -->
    <title>icon_facebook</title>
    <desc>Created with Sketch.</desc>
    <defs>
        <polygon id="path-1" points="4.14690749 15.9706784 8.29377974 15.9706784 8.29377974 0 4.14690749 0 3.52422903e-05 0 3.52422903e-05 15.9706784 4.14690749 15.9706784"></polygon>
    </defs>
    <g id="P1_BE_DESIGN_Homepage-and-Navigation" stroke="none" stroke-width="1" fill="none" fill-rule="evenodd">
        <g id="P1_BE_DESIGN_Homepage-Variations-01_LRG" transform="translate(-722.000000, -6326.000000)">
            <g id="FOOTER" transform="translate(0.000000, 6192.000000)">
                <g id="social-icons" transform="translate(722.000000, 134.000000)">
                    <g id="icon_facebook">
                        <mask id="mask-2" fill="white">
                            <use xlink:href="#path-1"></use>
                        </mask>
                        <g id="Clip-2"></g>
                        <path d="M5.3833304,15.9706784 L5.3833304,8.68574449 L7.82865198,8.68574449 L8.1947489,5.84662555 L5.3833304,5.84662555 L5.3833304,4.03397357 C5.3833304,3.21198238 5.61155947,2.65177093 6.79034361,2.65177093 L8.29377974,2.65113656 L8.29377974,0.111859031 C8.03369163,0.0773215859 7.14128634,0 6.10304846,0 C3.93550661,0 2.45152423,1.32306608 2.45152423,3.75288106 L2.45152423,5.84662555 L0,5.84662555 L0,8.68574449 L2.45152423,8.68574449 L2.45152423,15.9706784 L5.3833304,15.9706784 Z" id="Fill-1" fill="#3E464B" mask="url(#mask-2)"></path>
                    </g>
                </g>
            </g>
        </g>
    </g>
</svg>