<?xml version="1.0" encoding="UTF-8" standalone="no"?>
<svg width="79px" height="68px" viewBox="0 0 79 68" version="1.1" xmlns="http://www.w3.org/2000/svg" xmlns:xlink="http://www.w3.org/1999/xlink">
    <!-- Generator: sketchtool 42 (36781) - http://www.bohemiancoding.com/sketch -->
    <title>29C8959D-D8EE-4D75-A9A7-540EC0019250</title>
    <desc>Created with sketchtool.</desc>
    <defs></defs>
    <g id="P2_BE_DESIGN_Our-Wines" stroke="none" stroke-width="1" fill="none" fill-rule="evenodd">
        <g id="P2.2_BE_DESIGN_Our-Wines_Product_Detail_Page_LRG" transform="translate(-761.000000, -991.000000)" fill="#3E464B">
            <path d="M776.586,1040.731 C777.307,1039.356 777.492,1037.816 777.234,1036.279 C775.82,1036.937 774.658,1037.963 773.931,1039.336 C773.21,1040.711 773.027,1042.25 773.285,1043.789 C774.701,1043.129 775.863,1042.105 776.586,1040.731 Z M770.742,1024.141 C772.133,1023.453 773.187,1022.315 773.883,1020.92 C772.354,1020.622 770.809,1020.768 769.414,1021.451 C768.023,1022.14 766.969,1023.277 766.273,1024.675 C767.807,1024.973 769.348,1024.827 770.742,1024.141 Z M773.912,1026.237 C772.353,1026.263 770.873,1026.727 769.652,1027.686 C768.432,1028.65 767.641,1029.98 767.25,1031.492 C768.811,1031.465 770.289,1031.002 771.508,1030.041 C772.727,1029.078 773.521,1027.746 773.912,1026.237 Z M773.486,1035.653 C774.476,1034.458 774.978,1032.99 775.045,1031.432 C773.525,1031.783 772.176,1032.543 771.18,1033.736 C770.188,1034.931 769.69,1036.398 769.621,1037.958 C771.143,1037.606 772.492,1036.847 773.486,1035.653 Z M765.877,1017.293 C766.486,1015.857 766.666,1014.317 766.283,1012.812 C765.898,1011.307 765.006,1010.04 763.785,1009.068 C763.176,1010.505 762.998,1012.046 763.381,1013.549 C763.762,1015.054 764.658,1016.322 765.877,1017.293 Z M773.453,1000.344 C773.713,998.814 773.414,997.293 772.693,995.908 C771.554,996.973 770.763,998.308 770.502,999.838 C770.238,1001.367 770.539,1002.891 771.26,1004.274 C772.398,1003.209 773.191,1001.876 773.453,1000.344 Z M769.213,1006.201 C769.15,1004.649 768.541,1003.224 767.549,1002.019 C766.654,1003.298 766.158,1004.768 766.221,1006.319 C766.282,1007.87 766.893,1009.297 767.885,1010.5 C768.777,1009.223 769.275,1007.754 769.213,1006.201 Z M766.736,1017.804 C768.175,1018.413 769.713,1018.592 771.218,1018.21 C772.72,1017.825 773.989,1016.932 774.96,1015.713 C773.524,1015.104 771.983,1014.924 770.48,1015.304 C768.975,1015.688 767.709,1016.581 766.736,1017.804 Z M784.133,1002.946 C783.33,1001.609 782.188,1000.557 780.746,999.979 C779.305,999.407 777.754,999.383 776.25,999.802 C777.055,1001.142 778.195,1002.189 779.635,1002.765 C781.078,1003.338 782.631,1003.361 784.133,1002.946 Z M784.215,997.464 C785.645,996.85 786.756,995.772 787.522,994.412 C786.01,994.034 784.461,994.098 783.034,994.711 C781.606,995.325 780.497,996.406 779.729,997.763 C781.24,998.14 782.787,998.077 784.215,997.464 Z M777.789,1044.24 C777.369,1045.736 777.51,1047.279 778.082,1048.731 C779.328,1047.791 780.252,1046.548 780.674,1045.053 C781.094,1043.558 780.955,1042.013 780.383,1040.564 C779.137,1041.502 778.213,1042.747 777.789,1044.24 Z M775.766,1007.283 C777.295,1007.544 778.819,1007.243 780.2,1006.525 C779.137,1005.384 777.802,1004.593 776.272,1004.328 C774.743,1004.067 773.221,1004.367 771.836,1005.09 C772.902,1006.232 774.234,1007.02 775.766,1007.283 Z M765.326,1024.354 C765.623,1022.823 765.48,1021.279 764.793,1019.886 C764.104,1018.493 762.967,1017.44 761.57,1016.742 C761.273,1018.274 761.42,1019.818 762.107,1021.21 C762.793,1022.604 763.932,1023.658 765.326,1024.354 Z M777.098,1010.844 C775.821,1009.949 774.352,1009.453 772.799,1009.512 C771.248,1009.575 769.822,1010.185 768.617,1011.179 C769.898,1012.075 771.365,1012.569 772.918,1012.508 C774.469,1012.444 775.895,1011.834 777.098,1010.844 Z M778.818,995.497 C779.39,994.054 779.414,992.504 778.998,991 C777.662,991.805 776.609,992.947 776.037,994.389 C775.461,995.829 775.437,997.383 775.855,998.885 C777.191,998.08 778.242,996.941 778.818,995.497 Z M777.209,1049.221 C776.271,1047.976 775.027,1047.05 773.533,1046.628 C772.037,1046.208 770.494,1046.348 769.041,1046.919 C769.98,1048.165 771.225,1049.09 772.719,1049.511 C774.215,1049.933 775.76,1049.792 777.209,1049.221 Z M785.182,1055.062 C783.643,1055.286 782.291,1056.041 781.198,1057.154 C782.563,1057.91 784.075,1058.25 785.612,1058.026 C787.149,1057.802 788.503,1057.047 789.596,1055.934 C788.23,1055.178 786.719,1054.838 785.182,1055.062 Z M766.256,1031.376 C766.229,1029.816 765.768,1028.336 764.805,1027.117 C763.842,1025.897 762.51,1025.104 761,1024.712 C761.029,1026.273 761.492,1027.752 762.453,1028.971 C763.414,1030.19 764.748,1030.985 766.256,1031.376 Z M785.572,1048.433 C785.672,1046.882 785.215,1045.401 784.353,1044.102 C783.33,1045.278 782.685,1046.688 782.582,1048.237 C782.48,1049.788 782.939,1051.267 783.801,1052.569 C784.824,1051.39 785.469,1049.982 785.572,1048.433 Z M788.973,1046.735 C788.217,1048.098 787.879,1049.611 788.1,1051.148 C788.325,1052.686 789.08,1054.038 790.194,1055.131 C790.95,1053.766 791.288,1052.255 791.065,1050.718 C790.842,1049.181 790.086,1047.827 788.973,1046.735 Z M766.32,1034.187 C765.125,1033.195 763.658,1032.694 762.097,1032.625 C762.451,1034.146 763.21,1035.497 764.406,1036.488 C765.597,1037.482 767.068,1037.982 768.625,1038.051 C768.275,1036.531 767.514,1035.18 766.32,1034.187 Z M778.914,1051.457 C777.363,1051.356 775.883,1051.814 774.582,1052.675 C775.76,1053.698 777.168,1054.345 778.719,1054.446 C780.268,1054.548 781.75,1054.09 783.051,1053.229 C781.873,1052.205 780.465,1051.559 778.914,1051.457 Z M772.33,1044.087 C771.672,1042.674 770.646,1041.51 769.273,1040.786 C767.896,1040.064 766.357,1039.88 764.818,1040.137 C765.478,1041.551 766.504,1042.715 767.879,1043.437 C769.252,1044.16 770.793,1044.344 772.33,1044.087 Z M830.652,1021.451 C829.257,1020.767 827.713,1020.622 826.183,1020.92 C826.878,1022.315 827.933,1023.452 829.324,1024.141 C830.717,1024.828 832.26,1024.973 833.793,1024.675 C833.096,1023.277 832.043,1022.141 830.652,1021.451 Z M830.414,1027.687 C829.193,1026.728 827.713,1026.264 826.154,1026.238 C826.545,1027.747 827.34,1029.079 828.558,1030.042 C829.777,1031.003 831.255,1031.466 832.816,1031.493 C832.426,1029.98 831.633,1028.65 830.414,1027.687 Z M833.846,1006.319 C833.909,1004.768 833.412,1003.298 832.518,1002.019 C831.526,1003.224 830.916,1004.649 830.854,1006.201 C830.791,1007.754 831.29,1009.222 832.182,1010.5 C833.174,1009.297 833.785,1007.87 833.846,1006.319 Z M828.807,1004.273 C829.528,1002.89 829.828,1001.367 829.565,999.837 C829.303,998.308 828.512,996.973 827.374,995.907 C826.653,997.292 826.354,998.812 826.614,1000.343 C826.875,1001.876 827.668,1003.209 828.807,1004.273 Z M830.445,1037.958 C830.377,1036.398 829.879,1034.932 828.886,1033.736 C827.89,1032.544 826.54,1031.783 825.021,1031.432 C825.087,1032.99 825.589,1034.457 826.58,1035.653 C827.574,1036.847 828.924,1037.606 830.445,1037.958 Z M819.867,1006.525 C821.248,1007.243 822.771,1007.544 824.301,1007.283 C825.832,1007.019 827.164,1006.232 828.231,1005.09 C826.846,1004.367 825.325,1004.068 823.795,1004.328 C822.264,1004.594 820.93,1005.385 819.867,1006.525 Z M835.262,1027.117 C834.299,1028.336 833.838,1029.816 833.811,1031.376 C835.319,1030.985 836.653,1030.19 837.614,1028.971 C838.575,1027.752 839.038,1026.273 839.067,1024.712 C837.555,1025.104 836.225,1025.897 835.262,1027.117 Z M835.273,1019.887 C834.585,1021.28 834.443,1022.824 834.74,1024.355 C836.135,1023.659 837.273,1022.604 837.959,1021.211 C838.647,1019.819 838.793,1018.275 838.496,1016.743 C837.1,1017.44 835.963,1018.494 835.273,1019.887 Z M825.105,1015.713 C826.076,1016.932 827.343,1017.825 828.847,1018.21 C830.353,1018.592 831.89,1018.413 833.329,1017.804 C832.356,1016.581 831.091,1015.689 829.585,1015.304 C828.082,1014.924 826.541,1015.104 825.105,1015.713 Z M834.189,1017.293 C835.408,1016.322 836.304,1015.054 836.685,1013.549 C837.068,1012.045 836.888,1010.504 836.281,1009.068 C835.06,1010.04 834.168,1011.307 833.783,1012.812 C833.4,1014.317 833.58,1015.857 834.189,1017.293 Z M823.48,1040.731 C824.203,1042.105 825.365,1043.128 826.781,1043.789 C827.039,1042.25 826.855,1040.711 826.133,1039.336 C825.408,1037.963 824.246,1036.938 822.832,1036.279 C822.574,1037.816 822.76,1039.356 823.48,1040.731 Z M822.969,1010.844 C824.172,1011.834 825.598,1012.445 827.149,1012.508 C828.702,1012.569 830.169,1012.074 831.45,1011.179 C830.245,1010.185 828.819,1009.575 827.268,1009.512 C825.715,1009.453 824.246,1009.949 822.969,1010.844 Z M810.471,1055.934 C811.565,1057.046 812.918,1057.802 814.455,1058.026 C815.992,1058.25 817.504,1057.91 818.869,1057.154 C817.775,1056.042 816.424,1055.286 814.885,1055.062 C813.348,1054.838 811.836,1055.178 810.471,1055.934 Z M826.533,1046.628 C825.039,1047.05 823.795,1047.976 822.857,1049.221 C824.306,1049.792 825.851,1049.933 827.347,1049.511 C828.841,1049.09 830.085,1048.165 831.025,1046.919 C829.572,1046.348 828.029,1046.208 826.533,1046.628 Z M817.016,1053.229 C818.317,1054.089 819.799,1054.547 821.348,1054.446 C822.899,1054.345 824.307,1053.699 825.485,1052.675 C824.184,1051.815 822.704,1051.357 821.153,1051.457 C819.602,1051.559 818.193,1052.205 817.016,1053.229 Z M814.494,1048.433 C814.596,1049.983 815.242,1051.39 816.265,1052.569 C817.126,1051.267 817.585,1049.788 817.484,1048.237 C817.38,1046.688 816.736,1045.278 815.713,1044.102 C814.852,1045.4 814.395,1046.882 814.494,1048.433 Z M811.094,1046.735 C809.981,1047.827 809.225,1049.18 809.002,1050.718 C808.779,1052.255 809.117,1053.766 809.873,1055.131 C810.986,1054.037 811.742,1052.686 811.967,1051.148 C812.188,1049.611 811.85,1048.099 811.094,1046.735 Z M830.793,1040.786 C829.42,1041.51 828.395,1042.674 827.736,1044.087 C829.273,1044.344 830.814,1044.16 832.187,1043.437 C833.562,1042.715 834.587,1041.551 835.248,1040.137 C833.709,1039.88 832.17,1040.064 830.793,1040.786 Z M823.816,999.803 C822.312,999.384 820.761,999.407 819.32,999.98 C817.879,1000.558 816.736,1001.61 815.933,1002.947 C817.435,1003.362 818.988,1003.339 820.429,1002.766 C821.871,1002.189 823.01,1001.143 823.816,999.803 Z M821.984,1048.731 C822.556,1047.279 822.697,1045.736 822.277,1044.24 C821.853,1042.747 820.929,1041.502 819.683,1040.564 C819.111,1042.013 818.972,1043.558 819.392,1045.053 C819.814,1046.549 820.738,1047.791 821.984,1048.731 Z M824.211,998.885 C824.629,997.383 824.606,995.829 824.029,994.389 C823.457,992.947 822.404,991.805 821.068,991 C820.652,992.504 820.675,994.054 821.248,995.497 C821.824,996.941 822.875,998.08 824.211,998.885 Z M815.852,997.464 C817.28,998.077 818.827,998.14 820.338,997.763 C819.57,996.407 818.461,995.325 817.033,994.711 C815.605,994.098 814.056,994.034 812.545,994.412 C813.311,995.771 814.422,996.85 815.852,997.464 Z M831.441,1038.051 C832.998,1037.983 834.466,1037.483 835.66,1036.488 C836.855,1035.497 837.615,1034.145 837.967,1032.625 C836.408,1032.693 834.942,1033.194 833.746,1034.187 C832.551,1035.18 831.791,1036.531 831.441,1038.051 Z M808.531,1026.184 L817.383,1017.785 L805.285,1016.196 L800.033,1005.181 L794.781,1016.196 L782.681,1017.785 L791.535,1026.184 L789.31,1038.181 L800.033,1032.357 L810.756,1038.181 L808.531,1026.184 Z" id="icn_awards"></path>
        </g>
    </g>
</svg>