<?xml version="1.0" encoding="UTF-8" standalone="no"?>
<svg width="24px" height="24px" viewBox="0 0 24 24" version="1.1" xmlns="http://www.w3.org/2000/svg" xmlns:xlink="http://www.w3.org/1999/xlink">
    <!-- Generator: Sketch 42 (36781) - http://www.bohemiancoding.com/sketch -->
    <title>icon Instagram</title>
    <desc>Created with Sketch.</desc>
    <defs></defs>
    <g id="P4_BE_DESIGN_Visit-our-vineyard" stroke="none" stroke-width="1" fill="none" fill-rule="evenodd">
        <g id="P4-v2_BE_DESIGN_Visit-our-vineyard_Awards-Logos_LRG" transform="translate(-1428.000000, -5215.000000)" fill="#3E464B">
            <g id="UGC" transform="translate(0.000000, 5031.000000)">
                <g id="Follow-us" transform="translate(1280.000000, 0.000000)">
                    <g id="icon-Instagram" transform="translate(148.000000, 184.000000)">
                        <g id="Group-3">
                            <path d="M18.3633743,7.01821782 C17.569901,7.01821782 16.926701,6.3749703 16.926701,5.58154455 C16.926701,4.78807129 17.569901,4.14482376 18.3633743,4.14482376 C19.1568475,4.14482376 19.800095,4.78807129 19.800095,5.58154455 C19.800095,6.3749703 19.1568475,7.01821782 18.3633743,7.01821782 M11.9724356,18.1204752 C8.57698218,18.1204752 5.82444356,15.3679366 5.82444356,11.9724356 C5.82444356,8.57698218 8.57698218,5.82444356 11.9724356,5.82444356 C15.3678891,5.82444356 18.1204752,8.57698218 18.1204752,11.9724356 C18.1204752,15.3679366 15.3678891,18.1204752 11.9724356,18.1204752 M23.8728713,7.0362297 C23.8147485,5.76190099 23.6123406,4.8915802 23.3163564,4.13004356 C23.0103921,3.34274851 22.6010614,2.67502574 21.9354297,2.00944158 C21.2698455,1.34385743 20.6021703,0.934479208 19.8148752,0.628514851 C19.0532911,0.332578218 18.1830178,0.130170297 16.9086891,0.0720475248 C15.631699,0.0137821782 15.2239842,0 11.9724356,0 C8.72093465,0 8.3132198,0.0137821782 7.0362297,0.0720475248 C5.76185347,0.130170297 4.8915802,0.332578218 4.12999604,0.628514851 C3.34274851,0.934479208 2.67502574,1.34385743 2.00944158,2.00944158 C1.34385743,2.67502574 0.934479208,3.34274851 0.628514851,4.13004356 C0.332578218,4.8915802 0.130170297,5.76190099 0.072,7.0362297 C0.0137821782,8.3132198 0,8.72093465 0,11.9724356 C0,15.2239842 0.0137821782,15.631699 0.072,16.9086891 C0.130170297,18.1830178 0.332578218,19.0533386 0.628514851,19.8148752 C0.934479208,20.6021703 1.34385743,21.2698455 2.00944158,21.9354772 C2.67502574,22.6010614 3.34274851,23.0104396 4.12999604,23.3163564 C4.8915802,23.6123406 5.76185347,23.8147485 7.0362297,23.8728713 C8.3132198,23.9311366 8.72093465,23.9449188 11.9724356,23.9449188 C15.2239842,23.9449188 15.631699,23.9311366 16.9086891,23.8728713 C18.1830178,23.8147485 19.0532911,23.6123406 19.8148752,23.3163564 C20.6021703,23.0104396 21.2698455,22.6010614 21.9354297,21.9354772 C22.6010614,21.2698455 23.0103921,20.6021703 23.3163564,19.8148752 C23.6123406,19.0533386 23.8147485,18.1830178 23.8728713,16.9086891 C23.9311366,15.631699 23.9449188,15.2239842 23.9449188,11.9724356 C23.9449188,8.72093465 23.9311366,8.3132198 23.8728713,7.0362297" id="Fill-1"></path>
                        </g>
                        <path d="M7.98161584,12.0200079 C7.98161584,14.2240634 9.76840396,16.010804 11.9724594,16.010804 C14.1765149,16.010804 15.963303,14.2240634 15.963303,12.0200079 C15.963303,9.81590495 14.1765149,8.02916436 11.9724594,8.02916436 C9.76840396,8.02916436 7.98161584,9.81590495 7.98161584,12.0200079 Z" id="Fill-4"></path>
                    </g>
                </g>
            </g>
        </g>
    </g>
</svg>