<?xml version="1.0" encoding="UTF-8" standalone="no"?>
<svg width="23px" height="16px" viewBox="0 0 23 16" version="1.1" xmlns="http://www.w3.org/2000/svg" xmlns:xlink="http://www.w3.org/1999/xlink">
    <!-- Generator: Sketch 41.2 (35397) - http://www.bohemiancoding.com/sketch -->
    <title>icon youtube</title>
    <desc>Created with Sketch.</desc>
    <defs>
        <polygon id="path-1" points="22.7304367 7.99357775 22.7304367 15.9871555 0 15.9871555 0 7.99357775 0 0 22.7304367 0"></polygon>
    </defs>
    <g id="P1_BE_DESIGN_Homepage-and-Navigation" stroke="none" stroke-width="1" fill="none" fill-rule="evenodd">
        <g id="P1_BE_DESIGN_Homepage-Variations-01_LRG" transform="translate(-856.000000, -6326.000000)">
            <g id="FOOTER" transform="translate(0.000000, 6192.000000)">
                <g id="social-icons" transform="translate(722.000000, 134.000000)">
                    <g id="icon-youtube" transform="translate(134.000000, 0.000000)">
                        <mask id="mask-2" fill="white">
                            <use xlink:href="#path-1"></use>
                        </mask>
                        <g id="Clip-2"></g>
                        <path d="M9.01857024,10.9419527 L9.01752434,4.55530459 L15.159388,7.75975522 L9.01857024,10.9419527 Z M22.5034325,3.44890125 C22.5034325,3.44890125 22.2813241,1.88252573 21.599822,1.19274548 C20.7354659,0.287399166 19.7666092,0.282926287 19.3223032,0.229919332 C16.1415076,0 11.3701474,0 11.3701474,0 L11.360267,0 C11.360267,0 6.58901808,0 3.40811127,0.229919332 C2.96378303,0.282926287 1.99528234,0.287399166 1.13061474,1.19274548 C0.449090403,1.88252573 0.227315716,3.44890125 0.227315716,3.44890125 C0.227315716,3.44890125 0,5.28832267 0,7.12776634 L0,8.85222809 C0,10.6916273 0.227315716,12.5310487 0.227315716,12.5310487 C0.227315716,12.5310487 0.449090403,14.0974465 1.13061474,14.7872267 C1.99528234,15.6925508 3.13108206,15.6639332 3.63694019,15.7588206 C5.45542142,15.9331961 11.3652295,15.9871599 11.3652295,15.9871599 C11.3652295,15.9871599 16.1415076,15.9799499 19.3223032,15.7500306 C19.7666092,15.6970459 20.7354659,15.6925508 21.599822,14.7872267 C22.2813241,14.0974465 22.5034325,12.5310487 22.5034325,12.5310487 C22.5034325,12.5310487 22.7304367,10.6916273 22.7304367,8.85222809 L22.7304367,7.12776634 C22.7304367,5.28832267 22.5034325,3.44890125 22.5034325,3.44890125 L22.5034325,3.44890125 Z" id="Fill-1" fill="#3E464B" mask="url(#mask-2)"></path>
                    </g>
                </g>
            </g>
        </g>
    </g>
</svg>