<?xml version="1.0" encoding="utf-8"?>
<!-- Generator: Adobe Illustrator 20.0.0, SVG Export Plug-In . SVG Version: 6.00 Build 0)  -->
<svg version="1.1" id="Layer_1" xmlns="http://www.w3.org/2000/svg" xmlns:xlink="http://www.w3.org/1999/xlink" x="0px" y="0px"
	 viewBox="0 0 24 16" style="enable-background:new 0 0 24 16;" xml:space="preserve">
<style type="text/css">
	.st0{filter:url(#Adobe_OpacityMaskFilter);}
	.st1{fill:#FFFFFF;}
	.st2{mask:url(#mask-2);fill:#3E464B;}
</style>
<title>icon_twitter</title>
<desc>Created with Sketch.</desc>
<g id="P1_BE_DESIGN_Homepage-and-Navigation">
	<g id="P1_BE_DESIGN_Homepage-Variations-01_LRG" transform="translate(-806.000000, -6326.000000)">
		<g id="FOOTER" transform="translate(0.000000, 6192.000000)">
			<g id="social-icons" transform="translate(722.000000, 134.000000)">
				<g id="icon_twitter" transform="translate(84.000000, 0.000000)">
					<g id="Clip-2">
					</g>
					<defs>
						<filter id="Adobe_OpacityMaskFilter" filterUnits="userSpaceOnUse" x="2" y="0.1" width="19.5" height="15.8">
							<feColorMatrix  type="matrix" values="1 0 0 0 0  0 1 0 0 0  0 0 1 0 0  0 0 0 1 0"/>
						</filter>
					</defs>
					<mask maskUnits="userSpaceOnUse" x="2" y="0.1" width="19.5" height="15.8" id="mask-2">
						<g class="st0">
							<polygon id="path-1" class="st1" points="11.7,15.9 21.5,15.9 21.5,0.1 11.7,0.1 2,0.1 2,15.9 							"/>
						</g>
					</mask>
					<path id="Fill-1" class="st2" d="M8.1,15.9c7.3,0,11.4-6.1,11.4-11.4c0-0.2,0-0.3,0-0.5c0.8-0.6,1.5-1.3,2-2.1
						c-0.7,0.3-1.5,0.5-2.3,0.6c0.8-0.5,1.5-1.3,1.8-2.2c-0.8,0.5-1.6,0.8-2.5,1c-0.7-0.8-1.8-1.3-2.9-1.3c-2.2,0-4,1.8-4,4
						c0,0.3,0,0.6,0.1,0.9C8.3,4.9,5.3,3.3,3.4,0.8C3,1.4,2.8,2.1,2.8,2.9c0,1.4,0.7,2.6,1.8,3.3C3.9,6.2,3.3,6,2.8,5.7
						c0,0,0,0,0,0.1c0,1.9,1.4,3.5,3.2,3.9C5.7,9.7,5.3,9.8,4.9,9.8c-0.3,0-0.5,0-0.8-0.1c0.5,1.6,2,2.7,3.7,2.8
						c-1.4,1.1-3.1,1.7-5,1.7c-0.3,0-0.6,0-1-0.1C3.8,15.3,5.9,15.9,8.1,15.9"/>
				</g>
			</g>
		</g>
	</g>
</g>
</svg>
