<?xml version="1.0" encoding="utf-8"?>
<!-- Generator: Adobe Illustrator 20.0.0, SVG Export Plug-In . SVG Version: 6.00 Build 0)  -->
<svg version="1.1" id="Layer_1" xmlns="http://www.w3.org/2000/svg" xmlns:xlink="http://www.w3.org/1999/xlink" x="0px" y="0px"
	 viewBox="0 0 24 16" style="enable-background:new 0 0 24 16;" xml:space="preserve">
<style type="text/css">
	.st0{filter:url(#Adobe_OpacityMaskFilter);}
	.st1{fill:#FFFFFF;}
	.st2{mask:url(#mask-2);fill:#3E464B;}
</style>
<title>icon youtube</title>
<desc>Created with Sketch.</desc>
<g id="P1_BE_DESIGN_Homepage-and-Navigation">
	<g id="P1_BE_DESIGN_Homepage-Variations-01_LRG" transform="translate(-856.000000, -6326.000000)">
		<g id="FOOTER" transform="translate(0.000000, 6192.000000)">
			<g id="social-icons" transform="translate(722.000000, 134.000000)">
				<g id="icon-youtube" transform="translate(134.000000, 0.000000)">
					<g id="Clip-2">
					</g>
					<defs>
						<filter id="Adobe_OpacityMaskFilter" filterUnits="userSpaceOnUse" x="0.5" y="0" width="22.7" height="16">
							<feColorMatrix  type="matrix" values="1 0 0 0 0  0 1 0 0 0  0 0 1 0 0  0 0 0 1 0"/>
						</filter>
					</defs>
					<mask maskUnits="userSpaceOnUse" x="0.5" y="0" width="22.7" height="16" id="mask-2">
						<g class="st0">
							<polygon id="path-1" class="st1" points="23.2,8 23.2,16 0.5,16 0.5,8 0.5,0 23.2,0 							"/>
						</g>
					</mask>
					<path id="Fill-1" class="st2" d="M9.5,10.9l0-6.4l6.1,3.2L9.5,10.9z M23,3.4c0,0-0.2-1.6-0.9-2.3c-0.9-0.9-1.8-0.9-2.3-1
						c-3.2-0.2-8-0.2-8-0.2h0c0,0-4.8,0-8,0.2c-0.4,0.1-1.4,0.1-2.3,1C0.9,1.9,0.7,3.4,0.7,3.4S0.5,5.3,0.5,7.1v1.7
						c0,1.8,0.2,3.7,0.2,3.7s0.2,1.6,0.9,2.3c0.9,0.9,2,0.9,2.5,1C6,15.9,11.9,16,11.9,16s4.8,0,8-0.2c0.4-0.1,1.4-0.1,2.3-1
						c0.7-0.7,0.9-2.3,0.9-2.3s0.2-1.8,0.2-3.7V7.1C23.2,5.3,23,3.4,23,3.4L23,3.4z"/>
				</g>
			</g>
		</g>
	</g>
</g>
</svg>
