<?xml version="1.0" encoding="utf-8"?>
<!-- Generator: Adobe Illustrator 20.0.0, SVG Export Plug-In . SVG Version: 6.00 Build 0)  -->
<svg version="1.1" id="Layer_1" xmlns="http://www.w3.org/2000/svg" xmlns:xlink="http://www.w3.org/1999/xlink" x="0px" y="0px"
	 viewBox="0 0 24 16" style="enable-background:new 0 0 24 16;" xml:space="preserve">
<style type="text/css">
	.st0{fill:#3E464B;}
</style>
<title>icon Instagram</title>
<desc>Created with Sketch.</desc>
<g id="P1_BE_DESIGN_Homepage-and-Navigation">
	<g id="P1_BE_DESIGN_Homepage-Variations-01_LRG" transform="translate(-761.000000, -6326.000000)">
		<g id="FOOTER" transform="translate(0.000000, 6192.000000)">
			<g id="social-icons" transform="translate(722.000000, 134.000000)">
				<g id="icon-Instagram" transform="translate(39.000000, 0.000000)">
					<g id="Group-3">
						<path id="Fill-1" class="st0" d="M16.2,4.7c-0.5,0-0.9-0.4-0.9-0.9c0-0.5,0.4-0.9,0.9-0.9c0.5,0,0.9,0.4,0.9,0.9
							C17.1,4.3,16.7,4.7,16.2,4.7 M12,12c-2.2,0-4-1.8-4-4c0-2.2,1.8-4,4-4s4,1.8,4,4C16,10.2,14.2,12,12,12 M19.8,4.7
							c0-0.8-0.2-1.4-0.4-1.9c-0.2-0.5-0.5-1-0.9-1.4c-0.4-0.4-0.9-0.7-1.4-0.9c-0.5-0.2-1.1-0.3-1.9-0.4c-0.8,0-1.1,0-3.2,0
							c-2.1,0-2.4,0-3.2,0c-0.8,0-1.4,0.2-1.9,0.4C6.3,0.7,5.9,1,5.4,1.4C5,1.9,4.7,2.3,4.5,2.8C4.3,3.3,4.2,3.9,4.2,4.7
							c0,0.8,0,1.1,0,3.2c0,2.1,0,2.4,0,3.2c0,0.8,0.2,1.4,0.4,1.9c0.2,0.5,0.5,1,0.9,1.4c0.4,0.4,0.9,0.7,1.4,0.9
							c0.5,0.2,1.1,0.3,1.9,0.4c0.8,0,1.1,0,3.2,0c2.1,0,2.4,0,3.2,0c0.8,0,1.4-0.2,1.9-0.4c0.5-0.2,1-0.5,1.4-0.9
							c0.4-0.4,0.7-0.9,0.9-1.4c0.2-0.5,0.3-1.1,0.4-1.9c0-0.8,0-1.1,0-3.2C19.9,5.8,19.9,5.6,19.8,4.7"/>
					</g>
					<path id="Fill-4" class="st0" d="M9.4,8c0,1.5,1.2,2.6,2.6,2.6s2.6-1.2,2.6-2.6c0-1.5-1.2-2.6-2.6-2.6S9.4,6.6,9.4,8z"/>
				</g>
			</g>
		</g>
	</g>
</g>
</svg>
