<?xml version="1.0" encoding="utf-8"?>
<!-- Generator: Adobe Illustrator 20.0.0, SVG Export Plug-In . SVG Version: 6.00 Build 0)  -->
<svg version="1.1" id="Layer_1" xmlns="http://www.w3.org/2000/svg" xmlns:xlink="http://www.w3.org/1999/xlink" x="0px" y="0px"
	 viewBox="0 0 24 16" width="24" height="16" style="enable-background:new 0 0 24 16;" xml:space="preserve">
<style type="text/css">
	.st0{filter:url(#Adobe_OpacityMaskFilter);}
	.st1{fill:#FFFFFF;}
	.st2{mask:url(#mask-2);fill:#3E464B;}
</style>
<title>icon_facebook</title>
<desc>Created with Sketch.</desc>
<g id="P1_BE_DESIGN_Homepage-and-Navigation">
	<g id="P1_BE_DESIGN_Homepage-Variations-01_LRG" transform="translate(-722.000000, -6326.000000)">
		<g id="FOOTER" transform="translate(0.000000, 6192.000000)">
			<g id="social-icons" transform="translate(722.000000, 134.000000)">
				<g id="icon_facebook">
					<g id="Clip-2">
					</g>
					<defs>
						<filter id="Adobe_OpacityMaskFilter" filterUnits="userSpaceOnUse" x="7.5" y="0" width="8.3" height="16">
							<feColorMatrix  type="matrix" values="1 0 0 0 0  0 1 0 0 0  0 0 1 0 0  0 0 0 1 0"/>
						</filter>
					</defs>
					<mask maskUnits="userSpaceOnUse" x="7.5" y="0" width="8.3" height="16" id="mask-2">
						<g class="st0">
							<polygon id="path-1" class="st1" points="11.6,16 15.8,16 15.8,0 11.6,0 7.5,0 7.5,16 							"/>
						</g>
					</mask>
					<path id="Fill-1" class="st2" d="M12.9,16V8.7h2.4l0.4-2.8h-2.8V4c0-0.8,0.2-1.4,1.4-1.4l1.5,0V0.1c-0.3,0-1.2-0.1-2.2-0.1
						C11.4,0,10,1.3,10,3.8v2.1H7.5v2.8H10V16H12.9z"/>
				</g>
			</g>
		</g>
	</g>
</g>
</svg>
