<?xml version="1.0" encoding="UTF-8" standalone="no"?>
<svg width="133px" height="63px" viewBox="0 0 133 63" version="1.1" xmlns="http://www.w3.org/2000/svg" xmlns:xlink="http://www.w3.org/1999/xlink">
    <!-- Generator: Sketch 42 (36781) - http://www.bohemiancoding.com/sketch -->
    <title>Logo</title>
    <desc>Created with Sketch.</desc>
    <defs>
        <polygon id="path-1" points="0 0.807825272 0 19.8731426 13.8199881 19.8731426 13.8199881 0.807825272 9.87024336e-21 0.807825272"></polygon>
        <polygon id="path-3" points="7.86413387 1.62098107 7.86413387 0.164390244 0.147677171 0.164390244 0.147677171 1.62098107 7.86413387 1.62098107"></polygon>
    </defs>
    <g id="P1_BE_DESIGN_Homepage-and-Navigation" stroke="none" stroke-width="1" fill="none" fill-rule="evenodd">
        <g id="P1_BE_DESIGN_Homepage-01_SML" transform="translate(-93.000000, -4554.000000)">
            <g id="Footer" transform="translate(0.000000, 4529.000000)">
                <g id="Logo" transform="translate(93.000000, 25.000000)">
                    <g id="Group-30" transform="translate(0.000000, 27.963580)">
                        <path d="M46.4779197,27.6300714 C46.4779197,26.837686 47.3635269,26.4123614 48.1093014,26.4007087 C48.9628636,26.4007087 49.954802,26.8070976 50.6597919,27.65629 L50.6597919,26.2230046 C50.3218629,26.0321912 49.4522782,25.5515163 48.2229155,25.5515163 C46.0336595,25.5515163 45.0868754,26.9411039 45.0868754,28.008785 C45.0868754,30.9044876 49.7887506,30.5316003 49.7887506,32.6305477 L49.7887506,32.6305477 L49.7887506,32.6320043 C49.7887506,33.6428783 48.7108734,34.0026562 47.8980957,34.0026562 C46.8275015,34.0026562 45.761277,33.3267981 45.2412741,32.1090882 L45.0300684,32.1090882 L45.0300684,33.9545887 C45.5923125,34.4381769 46.8216751,34.9581798 47.8412887,34.9581798 C49.5484131,34.9581798 51.3079749,34.0288749 51.3079749,32.2168759 C51.3079749,29.3575881 46.4779197,29.5163565 46.4779197,27.6300714" id="Fill-1" fill="#FEFEFE"></path>
                        <path d="M72.2547706,25.6709567 L72.2547706,27.0663707 C72.502391,26.7138757 72.8607123,26.5915221 73.2583616,26.5915221 L75.8190483,26.5915221 L75.8190483,33.1753126 L75.8190483,33.1753126 C75.6908683,34.2604728 75.3485695,34.5372251 75.0281195,34.615881 L74.9552899,34.6348167 C74.9450938,34.6362732 74.9363543,34.6391864 74.9261581,34.640643 L74.9261581,34.832913 L78.0942432,34.832913 L78.0942432,34.640643 L78.0927866,34.640643 L78.0986129,34.640643 L78.0010214,34.615881 C77.6805714,34.5372251 77.3397291,34.2619294 77.2115491,33.1753126 L77.2115491,33.1753126 L77.2115491,26.5915221 L79.7780622,26.5915221 C80.1742549,26.5915221 80.5427724,26.7124192 80.7918494,27.0663707 L80.7918494,25.6709567 L72.2547706,25.6709567 Z" id="Fill-3" fill="#FEFEFE"></path>
                        <path d="M52.995144,25.6709567 L52.995144,27.0663707 C53.2427645,26.7138757 53.6010858,26.5915221 53.9987351,26.5915221 L56.5594218,26.5915221 L56.5594218,33.1753126 L56.5594218,33.1753126 C56.4312418,34.2604728 56.0889429,34.5372251 55.7684929,34.615881 L55.6956634,34.6348167 C55.6854673,34.6362732 55.6767277,34.6391864 55.6665316,34.640643 L55.6665316,34.832913 L58.8346166,34.832913 L58.8346166,34.640643 L58.8346166,34.640643 L58.8389864,34.640643 L58.7413948,34.615881 C58.4209448,34.5372251 58.0801026,34.2619294 57.9519226,33.1753126 L57.9519226,33.1753126 L57.9519226,26.5915221 L60.5184356,26.5915221 C60.9146283,26.5915221 61.2831458,26.7124192 61.5322228,27.0663707 L61.5322228,25.6709567 L52.995144,25.6709567 Z" id="Fill-5" fill="#FEFEFE"></path>
                        <path d="M67.9646736,31.216635 L65.1898681,31.216635 L66.5794557,28.3107363 L67.9646736,31.216635 Z M70.6637364,33.469981 L66.760073,25.6335223 L62.983133,33.5952478 C62.6437473,34.3016943 62.4106928,34.5260093 62.0450885,34.6367102 L62.0450885,34.8318934 L64.1352963,34.8318934 L64.1352963,34.6323405 C64.097425,34.6177745 64.0639234,34.601752 64.0304218,34.584273 C63.9415697,34.5347489 63.8876759,34.4735721 63.8585441,34.4021991 C63.8075634,34.2783889 63.8745666,33.9827009 63.9838109,33.7525596 L64.7528908,32.1357438 L68.4031074,32.1357438 L69.0629431,33.5224182 C69.2959976,34.0249421 69.2187983,34.4706589 68.7439497,34.64108 L68.7439497,34.83335 L71.6629577,34.83335 L71.6629577,34.6367102 C71.1575207,34.4706589 70.985643,34.1152507 70.6637364,33.469981 L70.6637364,33.469981 Z" id="Fill-7" fill="#FEFEFE"></path>
                        <path d="M41.1990889,33.0490262 L41.1990889,33.0490262 L41.1947191,33.0490262 C41.17724,33.1218558 41.1539346,33.1903155 41.1291725,33.2544055 C40.9325328,33.7059487 40.5261439,33.9200675 39.8677649,33.9200675 L36.8118373,33.9200675 L36.8118373,30.319375 L39.3259131,30.319375 C39.7526942,30.319375 40.0483821,30.4897961 40.2260862,30.6383684 C40.2319126,30.6441948 40.2377389,30.6500211 40.2435653,30.6543909 L40.2435653,30.6529343 C40.2799801,30.6849793 40.3134817,30.7155677 40.3382437,30.7432429 L40.3338739,29.0069867 C40.0906233,29.2677164 39.7148228,29.4250283 39.3317394,29.4279414 L36.8118373,29.4279414 L36.8118373,26.5322389 L40.070231,26.5322389 C40.4911857,26.5322389 40.7825039,26.695377 40.9616646,26.8424927 C40.9689475,26.8512323 40.9791437,26.8599718 40.98497,26.8672548 L40.98497,26.8643416 C41.0228414,26.8963866 41.0621693,26.926975 41.0869314,26.9546502 L41.0869314,26.7536407 L41.0869314,25.6713937 L34.8760281,25.6713937 C35.2008479,25.8796862 35.2896999,26.221985 35.2896999,26.8162741 L35.2896999,33.5559198 C35.2896999,34.327913 35.011491,34.537662 34.7274558,34.6236009 L34.666279,34.64108 L34.666279,34.83335 L41.3869891,34.83335 L41.3869891,33.0490262 L41.1990889,33.0490262 Z" id="Fill-9" fill="#FEFEFE"></path>
                        <path d="M89.6081567,33.0490262 L89.6081567,33.0490262 L89.6037869,33.0490262 C89.5863078,33.1218558 89.5630024,33.1903155 89.5382403,33.2544055 C89.3416006,33.7059487 88.9352117,33.9200675 88.2768327,33.9200675 L85.2209051,33.9200675 L85.2209051,30.319375 L87.7349809,30.319375 C88.161762,30.319375 88.4574499,30.4897961 88.635154,30.6383684 C88.6409804,30.6441948 88.6468067,30.6500211 88.6526331,30.6543909 L88.6526331,30.6529343 C88.6890479,30.6849793 88.7225495,30.7155677 88.7487681,30.7432429 L88.7429417,29.0069867 C88.4996911,29.2677164 88.1238906,29.4250283 87.7408072,29.4279414 L85.2209051,29.4279414 L85.2209051,26.5322389 L88.4792988,26.5322389 C88.9002535,26.5322389 89.1915717,26.695377 89.3707324,26.8424927 C89.3780153,26.8512323 89.3882115,26.8599718 89.3940378,26.8672548 L89.3940378,26.8643416 C89.4319092,26.8963866 89.4712371,26.926975 89.4959992,26.9546502 L89.4959992,26.7536407 L89.4959992,25.6713937 L83.2850959,25.6713937 C83.6099157,25.8796862 83.6987677,26.221985 83.6987677,26.8162741 L83.6987677,33.5559198 C83.6987677,34.327913 83.4205588,34.537662 83.1365236,34.6236009 C83.1161314,34.6294273 83.0957391,34.6352536 83.0753468,34.64108 L83.0753468,34.83335 L89.7960569,34.83335 L89.7960569,33.0490262 L89.6081567,33.0490262 Z" id="Fill-11" fill="#FEFEFE"></path>
                        <path d="M62.6235007,6.58058603 C62.6235007,5.06864476 63.2396386,4.51659683 63.9402588,4.29082525 L59.646229,4.29082525 C60.3468492,4.51659683 60.960074,5.07301453 60.960074,6.58495581 L60.960074,14.8015847 L51.9190147,4.29082525 L47.6599431,4.29082525 C48.3022997,4.55155501 49.6132314,5.70954472 49.6132314,7.0627176 L49.6132314,16.9922973 C49.6132314,18.6950519 49.2359744,19.1800967 48.4319363,19.3505178 L48.4319363,19.8792603 L52.4564967,19.8792603 L52.4564967,19.3505178 C51.6524586,19.1800967 51.2766582,18.6892256 51.2766582,16.9864709 L51.2766582,7.3962769 L62.0306682,19.8792603 L62.6235007,19.8792603 L62.6235007,6.58058603 Z" id="Fill-13" fill="#FEFEFE"></path>
                        <path d="M98.6366893,4.29111657 L98.6366893,7.15623073 C99.050361,6.36093214 99.7262192,5.84966876 100.604543,5.84966876 L103.736214,5.84966876 L103.736214,16.9882188 C103.736214,18.6909735 103.265735,19.180388 102.46024,19.3508091 L102.46024,19.8795516 L107.569961,19.8795516 L107.569961,19.3508091 C106.765923,19.180388 106.2969,18.6909735 106.2969,16.9882188 L106.2969,5.84966876 L116.073538,5.84966876 L116.073538,16.9882188 C116.073538,18.6909735 115.601603,19.180388 114.797564,19.3508091 L114.797564,19.8795516 L119.905828,19.8795516 L119.905828,19.3508091 C119.10179,19.180388 118.632768,18.6909735 118.632768,16.9882188 L118.632768,5.84966876 L121.765895,5.84966876 C122.642763,5.84966876 123.318621,6.36093214 123.732293,7.15623073 L123.732293,4.29111657 L98.6366893,4.29111657 Z" id="Fill-15" fill="#FEFEFE"></path>
                        <path d="M35.7153157,13.6680657 L38.0997549,8.67924209 L40.4798243,13.6680657 L35.7153157,13.6680657 Z M21.6737802,11.5093981 L20.13999,11.5093981 L20.13999,5.66555568 L21.6737802,5.66555568 C24.2519459,5.66555568 25.2482541,7.03038128 25.2482541,8.6151521 C25.2482541,10.1984663 24.2519459,11.5093981 21.6737802,11.5093981 L21.6737802,11.5093981 Z M45.1146963,17.5367709 L38.4114654,4.07932827 L31.9238098,17.7538029 C31.3615658,18.9278151 30.9610033,19.1929147 30.3579747,19.302159 C29.2975766,19.3444001 29.0164545,19.1783488 27.7535903,17.144948 L24.6335727,12.3585905 C26.5460765,11.7366262 27.7390244,10.4373472 27.7390244,8.55251869 C27.7390244,5.62477113 25.1608586,4.29053394 22.4079019,4.29053394 L16.2625453,4.29053394 C16.9631654,4.51630551 17.5763902,5.07272321 17.5763902,6.58466449 L17.5763902,16.9861796 C17.5763902,18.6889343 17.1073679,19.1798054 16.3018732,19.3516831 L16.3018732,19.878969 L21.4101372,19.878969 L21.4101372,19.3516831 C20.6060991,19.1798054 20.13999,18.6889343 20.13999,16.9861796 L20.13999,12.7722623 L21.9607286,12.7751755 L26.5184013,19.8760558 L33.9047733,19.8760558 L33.9047733,19.5337569 C33.8377702,19.5089949 33.7809631,19.4798631 33.7241561,19.4507313 C33.571214,19.3647924 33.4779922,19.2599179 33.4270115,19.1375642 C33.3425293,18.9263586 33.4561434,18.4180084 33.642587,18.0232722 L34.9651715,15.2455535 L41.2314252,15.2455535 L42.3661094,17.6285361 C42.7666719,18.4908379 42.6341222,19.2555481 41.8184313,19.5483228 L41.8184313,19.878969 L46.8305603,19.878969 L46.8305603,19.5410399 C45.9609756,19.2555481 45.6667443,18.6452365 45.1146963,17.5367709 L45.1146963,17.5367709 Z" id="Fill-17" fill="#FEFEFE"></path>
                        <g id="Group-21">
                            <mask id="mask-2" fill="white">
                                <use xlink:href="#path-1"></use>
                            </mask>
                            <g id="Clip-20"></g>
                            <path d="M6.77882804,18.2315647 L4.05645979,18.2315647 L4.05645979,10.4125852 L5.98789923,10.4125852 C9.60461425,10.4125852 10.972353,12.2886742 10.972353,14.1210654 C10.972353,16.3307137 9.5798522,18.2315647 6.77882804,18.2315647 M9.31329608,5.63205409 C9.31329608,7.39598558 8.07519388,8.90501367 5.38195744,8.90501367 L4.05645979,8.90501367 L4.05645979,2.27315564 L5.38195744,2.27315564 C8.07519388,2.27315564 9.31329608,3.86666601 9.31329608,5.63205409 M9.30892631,9.43375614 C10.5513983,8.93705867 12.0982977,7.44987944 12.0982977,5.50824387 C12.0982977,2.27898201 9.43127994,0.807825272 6.58510146,0.807825272 L-0.000145659084,0.807825272 C0.725236572,1.03942321 1.35739699,1.61477659 1.35739699,3.17915514 L1.35739699,16.8827616 C1.35739699,18.6423233 0.872352246,19.1506735 0.040638884,19.326921 L0.040638884,19.8731426 L6.75552259,19.8731426 C11.5826646,19.8731426 13.8199881,17.6256229 13.8199881,14.3934479 C13.8199881,11.6914719 11.7618253,9.93045361 9.30892631,9.43375614" id="Fill-19" fill="#FEFEFE" mask="url(#mask-2)"></path>
                        </g>
                        <path d="M79.1294423,14.6072754 C78.1724621,17.5117175 76.2672413,18.6711638 73.9148471,18.6711638 C70.9958391,18.6711638 68.5793549,16.1629144 68.5793549,12.0247399 C68.5793549,7.88656537 71.0628423,5.30548642 73.9818503,5.30548642 C76.4187267,5.30548642 78.1360473,6.74168498 79.6028343,8.81004395 L79.6028343,5.66963413 C77.7966617,4.55679874 75.7647175,4.02951286 74.1391621,4.02951286 C69.5246824,4.02951286 65.7710478,7.34617017 65.7710478,12.0247399 C65.7710478,16.7033096 69.2319076,20.0199669 73.8463873,20.0199669 C75.7647175,20.0199669 77.5432149,19.5290958 79.6028343,18.10455 L79.6028343,14.6072754 L79.1294423,14.6072754 Z" id="Fill-22" fill="#FEFEFE"></path>
                        <path d="M89.9066121,18.6452365 C86.8128132,18.6452365 84.8376761,15.5718299 84.8376761,12.0250312 C84.8376761,8.47823256 86.8128132,5.40482592 89.9066121,5.40482592 C93.000411,5.40482592 94.9770048,8.47823256 94.9770048,12.0250312 C94.9770048,15.5718299 93.000411,18.6452365 89.9066121,18.6452365 M89.9066121,4.02980418 C85.5557753,4.02980418 82.0279124,7.61010443 82.0279124,12.0250312 C82.0279124,16.439958 85.5557753,20.0202583 89.9066121,20.0202583 C94.2574489,20.0202583 97.7853119,16.439958 97.7853119,12.0250312 C97.7853119,7.61010443 94.2574489,4.02980418 89.9066121,4.02980418" id="Fill-24" fill="#FEFEFE"></path>
                        <polygon id="Fill-26" fill="#FEFEFE" points="91.5365373 25.8674508 90.9568141 25.8674508 90.9568141 25.6649847 92.366794 25.6649847 92.366794 25.8674508 91.7856143 25.8674508 91.7856143 27.5075721 91.5365373 27.5075721"></polygon>
                        <path d="M94.186076,26.6991642 C94.1715101,26.4413476 94.154031,26.1296372 94.154031,25.902409 L94.1496612,25.902409 C94.082658,26.1150713 94.0054587,26.3495824 93.9093237,26.6030292 L93.5743078,27.497376 L93.3878642,27.497376 L93.0776104,26.6190517 C92.9858451,26.3583219 92.911559,26.1223542 92.8576651,25.902409 L92.8532954,25.902409 C92.8460124,26.1325503 92.8329031,26.439891 92.815424,26.7180999 L92.7644433,27.5075721 L92.5313888,27.5075721 L92.662482,25.6649847 L92.9785622,25.6649847 L93.3019254,26.5564183 C93.3805813,26.7836464 93.4417581,26.9861126 93.4927387,27.176926 L93.5000217,27.176926 C93.5510024,26.9919389 93.6180056,26.7894728 93.7039444,26.5564183 L94.0404169,25.6649847 L94.3564971,25.6649847 L94.474481,27.5075721 L94.2326869,27.5075721 L94.186076,26.6991642 Z" id="Fill-28" fill="#FEFEFE"></path>
                    </g>
                    <g id="Group-48" transform="translate(56.350451, 0.288355)">
                        <path d="M0.216544658,17.1854412 C0.216544658,17.1854412 16.1108637,23.6629006 19.8776076,25.1588194 C23.0296702,26.4100309 27.5596676,26.7465034 31.1152058,27.0378215 C34.6707441,27.3305963 44.2390892,28.1550267 44.2390892,28.1550267 C44.2390892,28.1550267 36.9561351,26.9140113 34.1711334,26.4406193 C31.3861317,25.9672273 28.9128405,25.4705298 25.9064371,24.3868262 C22.8942072,23.3002095 5.90744501,17.1868978 5.90744501,17.1868978 L0.216544658,17.1854412 Z" id="Fill-31" fill="#FEFEFE"></path>
                        <path d="M35.0028468,23.2115031 C33.097626,22.6288668 15.0999897,17.1899566 15.0999897,17.1899566 L9.5765973,17.1870434 C9.5765973,17.1870434 26.194842,22.7410243 29.5770459,23.8829915 C32.9446839,25.0220455 38.5554718,25.2580132 39.6741335,25.3104505 C40.7927953,25.3628878 55.4475556,26.2645175 55.4475556,26.2645175 C55.4475556,26.2645175 44.9775807,24.9229973 42.8931993,24.6913994 C41.2050105,24.5049558 36.8818489,23.7853999 35.0028468,23.2115031" id="Fill-33" fill="#FEFEFE"></path>
                        <path d="M42.9137372,22.1448416 C41.5052139,21.7836071 23.9081401,17.1880631 23.9081401,17.1880631 L18.5231238,17.1851499 C18.5231238,17.1851499 36.7421619,22.3575039 38.2206016,22.7740889 C41.956757,23.8257475 45.8735298,23.7616575 47.2383554,23.827204 C48.6017244,23.8927506 62.2936781,24.5190847 62.2936781,24.5190847 C62.2936781,24.5190847 51.4624688,23.4208152 50.0990997,23.2795259 C48.7357307,23.1382366 45.6259093,22.8410921 42.9137372,22.1448416" id="Fill-35" fill="#FEFEFE"></path>
                        <path d="M52.3760425,10.4790057 L35.3004283,11.389375 L52.3760425,10.0915526 L52.3760425,10.4790057 Z M43.410726,16.8661565 L43.410726,12.2880915 L45.3814934,12.1992395 L45.3873197,16.8661565 L43.410726,16.8661565 Z M43.0057937,16.8690697 L40.9170425,16.8690697 L40.9170425,12.3987924 L43.0057937,12.3055706 L43.0057937,16.8690697 Z M40.5121102,16.8850922 L40.2470107,16.8865488 L40.2470107,17.1866065 L39.9061685,17.1851499 L39.9061685,11.7710018 L45.3814934,11.4053975 L45.3814934,11.8248956 L40.5121102,12.0623199 L40.5121102,16.8850922 Z M41.2928429,4.16905426 L41.4516113,4.14574881 L41.4472416,3.56748225 L41.2826468,3.59224429 L41.2826468,4.05689677 L40.9170425,4.48513447 L40.9228689,5.28480283 L39.7255512,4.9410474 L39.7372039,4.53757174 L41.9526786,1.92007803 L44.3414875,3.80781974 L44.3458573,3.64759475 L42.0371608,1.80209417 L44.6488282,2.83918684 L45.8359497,4.2112954 L45.8534288,4.49241743 L44.2526355,6.22576051 L44.2526355,4.17779381 L42.424614,2.72120298 L41.6438813,3.63448543 C41.9526786,3.74372974 42.5382281,3.94910905 42.6314499,3.97969745 L43.0684271,4.82597672 L43.7020442,4.74003787 L43.7093271,4.98474512 L42.1799067,5.23964852 L42.1799067,10.0988355 L41.5681386,10.1527294 L41.5681386,5.03135603 L42.5935785,4.89152331 L42.3911124,4.53028879 L41.2928429,4.16905426 Z M57.6561843,17.1880631 C57.6561843,17.1880631 66.1990895,18.6635896 67.546436,18.9068402 C68.902522,19.1530041 70.6169294,19.0932839 71.1121703,19.0860009 C71.6074112,19.0772614 75.0027244,19.071435 75.0027244,19.071435 C75.0027244,19.071435 72.7246164,18.9155798 72.1696553,18.8747952 C71.6161507,18.8340107 70.5717751,18.7568114 69.7269524,18.6169787 C68.8835863,18.4786025 63.9996373,17.6614551 61.0864557,17.1866065 L60.9145779,17.1866065 L60.9145779,10.0362021 L53.0693798,9.65020554 L52.7868011,9.19866238 L61.2466806,9.68225054 L65.1751061,11.1825391 L65.1751061,10.5853368 L61.2466806,8.94084581 L52.7780616,8.5140647 L52.7780616,6.28256755 L48.26263,6.78654798 L48.26263,8.97726058 L46.6443576,9.12583284 L46.6443576,6.96716524 L44.5541498,7.20021977 L44.2409828,6.77198207 L44.1288253,6.77780843 L44.1288253,6.4966864 L52.4998527,5.45668055 L52.4998527,5.83685076 L56.2855323,0.767914683 L58.9977044,8.08728358 L59.2016271,7.5760202 L56.4836286,0.167799263 L56.4836286,0.167799263 L56.4836286,0.167799263 L43.7399155,2.37162118 L42.0123988,1.67974054 L41.0306566,2.83918684 L39.2317669,3.15089727 L33.8278149,7.65904588 L33.7477024,7.66924202 L33.749159,7.77557315 L40.804885,6.8783132 L40.9214123,6.65836798 L41.3059522,7.5614543 L38.3112015,7.89647019 L38.3112015,9.88908643 L36.8735464,10.0158098 L36.8735464,8.05669518 L34.5138692,8.32033812 L34.510956,8.21255039 L34.3405349,8.17904881 L26.4050281,11.2320632 L23.5603062,11.7258475 L23.5603062,12.0069695 L26.4356165,11.574362 L34.5138692,8.5927206 L34.5138692,8.6087431 L34.5138692,8.92919308 L26.426877,11.9428795 L23.7656855,12.2953745 L23.7656855,17.1851499 L24.3046241,17.1851499 L24.3046241,12.8153774 L26.2841311,12.6915672 L26.2841311,17.1851499 L27.0007737,17.1851499 L27.0007737,12.6522392 L27.8091816,11.7258475 L33.571455,11.2786741 L34.5138692,12.1468022 L34.5138692,17.1851499 L35.408216,17.1880631 C35.408216,17.1880631 50.0192786,20.4450001 52.1721198,20.9373278 C54.3424401,21.4340253 57.9649815,21.460244 59.1724953,21.4689835 C60.3814657,21.4762665 69.9905954,21.6117294 69.9905954,21.6117294 C69.9905954,21.6117294 62.4614774,21.1092056 61.2364845,21.0407458 C60.0129482,20.9737426 57.6416184,20.7625369 55.9985839,20.4318908 C54.3977906,20.1085277 41.086007,17.3351787 40.4319977,17.1997158 L43.5199703,17.1997158 C44.1943718,17.3351787 56.8841911,19.8812995 58.1791004,20.1362029 C59.5133376,20.3998458 63.0776153,20.4930676 63.9501132,20.5105467 C64.8226111,20.5294824 72.20607,20.5600708 72.20607,20.5600708 C72.20607,20.5600708 66.6681117,20.2570999 65.5494499,20.1930099 C64.4307882,20.1274633 62.5852876,20.0109361 61.2306581,19.7458366 C59.9182698,19.4894766 48.679215,17.330809 47.9931607,17.1997158 L50.9063424,17.1997158 C51.6273548,17.3337221 62.1162654,19.2797275 63.192686,19.480737 C64.3084346,19.6890295 67.1720921,19.7400102 67.7649246,19.7472931 C68.3577571,19.7545761 73.7500563,19.776425 73.7500563,19.776425 C73.7500563,19.776425 69.6832547,19.5812418 68.9301973,19.5215216 C68.1785964,19.4632579 66.1888933,19.3044895 65.4751638,19.1748529 C64.7614343,19.0437598 54.8245717,17.1866065 54.8245717,17.1866065 L53.3840034,17.1866065 L53.3840034,10.883938 L60.1571507,10.3945235 L60.1571507,17.1866065 L57.6561843,17.1880631 Z" id="Fill-37" fill="#FEFEFE"></path>
                        <polygon id="Fill-39" fill="#FEFEFE" points="64.8714069 17.1873348 64.5378476 17.1873348 64.5378476 11.1861806 64.8714069 11.1118944"></polygon>
                        <path d="M64.6328173,17.1876261 L63.7676024,17.1876261 C63.7676024,17.1876261 70.9719006,18.3718344 71.2763281,18.4155322 C72.2537005,18.5568215 73.7802077,18.4898183 74.1123104,18.4839919 C74.4429566,18.4781656 76.1209492,18.4228151 76.1209492,18.4228151 C76.1209492,18.4228151 75.0809433,18.3558119 74.7823422,18.3558119 C74.4851977,18.3558119 73.6126998,18.3048312 72.9412114,18.1970435 C72.269723,18.0892558 66.5307552,17.1861695 66.5307552,17.1861695 L64.7770198,17.1876261" id="Fill-41" fill="#FEFEFE"></path>
                        <g id="Group-45" transform="translate(68.916360, 17.022499)">
                            <mask id="mask-4" fill="white">
                                <use xlink:href="#path-3"></use>
                            </mask>
                            <g id="Clip-44"></g>
                            <path d="M7.86471651,0.96406707 C7.01989383,0.897063892 6.82179747,0.879584802 6.55378476,0.84171344 C6.1983766,0.790732761 2.12429206,0.164398706 2.12429206,0.164398706 L0.14769831,0.164398706 C0.136045583,0.161485525 4.94570849,0.9116298 5.46279823,0.987372523 C6.10515479,1.08205093 7.15390018,1.00339502 7.86471651,0.96406707" id="Fill-43" fill="#FEFEFE" mask="url(#mask-4)"></path>
                        </g>
                        <path d="M49.8590536,21.2353463 C47.5955114,20.7168 32.2750891,17.188937 32.2750891,17.188937 L30.4936785,17.1845672 L30.4936785,11.8374223 L28.1791557,12.0296923 L27.6737187,12.6021325 L27.6737187,17.1845672 L27.0736033,17.1874804 C27.0736033,17.1874804 43.4544237,21.2571952 45.6262006,21.791764 C47.796521,22.3263329 52.4110007,22.5244292 53.7029968,22.553561 C54.9949928,22.5841494 66.8137708,22.9308181 66.8137708,22.9308181 C66.8137708,22.9308181 57.2701877,22.1704776 56.0743266,22.0670597 C54.877009,21.9636417 52.0599623,21.7393268 49.8590536,21.2353463" id="Fill-46" fill="#FEFEFE"></path>
                    </g>
                </g>
            </g>
        </g>
    </g>
</svg>