<?xml version="1.0" encoding="UTF-8" standalone="no"?>
<svg width="16px" height="16px" viewBox="0 0 16 16" version="1.1" xmlns="http://www.w3.org/2000/svg" xmlns:xlink="http://www.w3.org/1999/xlink">
    <!-- Generator: Sketch 41.2 (35397) - http://www.bohemiancoding.com/sketch -->
    <title>icon Instagram</title>
    <desc>Created with Sketch.</desc>
    <defs></defs>
    <g id="P1_BE_DESIGN_Homepage-and-Navigation" stroke="none" stroke-width="1" fill="none" fill-rule="evenodd">
        <g id="P1_BE_DESIGN_Homepage-Variations-01_LRG" transform="translate(-761.000000, -6326.000000)" fill="#3E464B">
            <g id="FOOTER" transform="translate(0.000000, 6192.000000)">
                <g id="social-icons" transform="translate(722.000000, 134.000000)">
                    <g id="icon-Instagram" transform="translate(39.000000, 0.000000)">
                        <g id="Group-3">
                            <path d="M12.2422495,4.67881188 C11.7132673,4.67881188 11.2844673,4.2499802 11.2844673,3.7210297 C11.2844673,3.19204752 11.7132673,2.76321584 12.2422495,2.76321584 C12.7712317,2.76321584 13.2000634,3.19204752 13.2000634,3.7210297 C13.2000634,4.2499802 12.7712317,4.67881188 12.2422495,4.67881188 M7.98162376,12.0803168 C5.71798812,12.0803168 3.88296238,10.2452911 3.88296238,7.98162376 C3.88296238,5.71798812 5.71798812,3.88296238 7.98162376,3.88296238 C10.2452594,3.88296238 12.0803168,5.71798812 12.0803168,7.98162376 C12.0803168,10.2452911 10.2452594,12.0803168 7.98162376,12.0803168 M15.9152475,4.6908198 C15.876499,3.84126733 15.7415604,3.26105347 15.5442376,2.75336238 C15.3402614,2.22849901 15.0673743,1.7833505 14.6236198,1.33962772 C14.179897,0.89590495 13.7347802,0.622986139 13.2099168,0.419009901 C12.7021941,0.221718812 12.1220119,0.086780198 11.2724594,0.0480316832 C10.4211327,0.00918811881 10.1493228,0 7.98162376,0 C5.81395644,0 5.54214653,0.00918811881 4.6908198,0.0480316832 C3.84123564,0.086780198 3.26105347,0.221718812 2.75333069,0.419009901 C2.22849901,0.622986139 1.7833505,0.89590495 1.33962772,1.33962772 C0.89590495,1.7833505 0.622986139,2.22849901 0.419009901,2.75336238 C0.221718812,3.26105347 0.086780198,3.84126733 0.048,4.6908198 C0.00918811881,5.54214653 0,5.81395644 0,7.98162376 C0,10.1493228 0.00918811881,10.4211327 0.048,11.2724594 C0.086780198,12.1220119 0.221718812,12.7022257 0.419009901,13.2099168 C0.622986139,13.7347802 0.89590495,14.179897 1.33962772,14.6236515 C1.7833505,15.0673743 2.22849901,15.3402931 2.75333069,15.5442376 C3.26105347,15.7415604 3.84123564,15.876499 4.6908198,15.9152475 C5.54214653,15.9540911 5.81395644,15.9632792 7.98162376,15.9632792 C10.1493228,15.9632792 10.4211327,15.9540911 11.2724594,15.9152475 C12.1220119,15.876499 12.7021941,15.7415604 13.2099168,15.5442376 C13.7347802,15.3402931 14.179897,15.0673743 14.6236198,14.6236515 C15.0673743,14.179897 15.3402614,13.7347802 15.5442376,13.2099168 C15.7415604,12.7022257 15.876499,12.1220119 15.9152475,11.2724594 C15.9540911,10.4211327 15.9632792,10.1493228 15.9632792,7.98162376 C15.9632792,5.81395644 15.9540911,5.54214653 15.9152475,4.6908198" id="Fill-1"></path>
                        </g>
                        <path d="M5.32107723,8.01333861 C5.32107723,9.48270891 6.51226931,10.6738693 7.9816396,10.6738693 C9.4510099,10.6738693 10.642202,9.48270891 10.642202,8.01333861 C10.642202,6.54393663 9.4510099,5.35277624 7.9816396,5.35277624 C6.51226931,5.35277624 5.32107723,6.54393663 5.32107723,8.01333861 Z" id="Fill-4"></path>
                    </g>
                </g>
            </g>
        </g>
    </g>
</svg>