<?xml version="1.0" encoding="UTF-8" standalone="no"?>
<svg width="229px" height="41px" viewBox="0 0 229 41" version="1.1" xmlns="http://www.w3.org/2000/svg" xmlns:xlink="http://www.w3.org/1999/xlink" xml:space="preserve" preserveAspectRatio="none slice">
    <!-- Generator: Sketch 41.2 (35397) - http://www.bohemiancoding.com/sketch -->
    <title>BE logo</title>
    <desc>Created with Sketch.</desc>
    <defs>
        <polygon id="path-1" points="9.63189884 1.05288487 9.63189884 0.00560277409 0.294300883 0.00560277409 0.294300883 1.05288487 9.63189884 1.05288487"></polygon>
    </defs>
    <g id="P1_BE_DESIGN_Homepage-and-Navigation" stroke="none" stroke-width="1" fill="none" fill-rule="evenodd">
        <g id="P1_BE_DESIGN_Homepage-Variations-01_LRG" transform="translate(-215.000000, -6223.000000)">
            <g id="FOOTER" transform="translate(0.000000, 6192.000000)">
                <g id="BE-logo" transform="translate(215.000000, 31.000000)">
                    <path d="M55.0890938,31.7137205 C55.0890938,30.7762241 56.1381256,30.2731451 57.0226877,30.2606011 C58.0339941,30.2606011 59.210101,30.7405729 60.0460172,31.7450804 L60.0460172,30.0499945 C59.6449363,29.8248633 58.6147672,29.2554333 57.1570432,29.2554333 C54.5625923,29.2554333 53.441088,30.8993531 53.441088,32.1610119 C53.441088,35.5858447 59.0132007,35.1448253 59.0132007,37.6265499 L59.0132007,37.6265499 L59.0132007,37.62688 C59.0132007,38.8235083 57.7358308,39.2480225 56.7721776,39.2480225 C55.5040736,39.2480225 54.2399406,38.4485098 53.6234276,37.0095848 L53.3735793,37.0095848 L53.3735793,39.1912446 C54.0390692,39.7629854 55.4971241,40.3779698 56.7053308,40.3779698 C58.7289363,40.3779698 60.8134319,39.2790524 60.8134319,37.1373352 C60.8134319,33.755416 55.0890938,33.9448959 55.0890938,31.7137205" id="Fill-1" fill="#FEFEFE"></path>
                    <path d="M85.6417642,31.047867 C85.9356254,30.6299549 86.360202,30.4863595 86.8317699,30.4863595 L89.8663509,30.4863595 L89.8663509,38.2708806 L89.8663509,38.2708806 C89.7147873,39.5536662 89.3094043,39.8798093 88.9291717,39.973889 L88.8421384,39.9956759 C88.8305561,39.9976565 88.8196355,40.0006275 88.8080532,40.0026081 L88.8080532,40.2293898 L92.5630575,40.2293898 L92.5630575,40.0026081 L92.5620647,40.0026081 L92.5680214,40.0026081 L92.4528595,39.973889 C92.0736197,39.8798093 91.6688986,39.5543264 91.517335,38.2708806 L91.517335,38.2708806 L91.517335,30.4863595 L94.5582035,30.4863595 C95.0284477,30.4863595 95.4646066,30.6296248 95.7597916,31.047867 L95.7597916,29.3973452 L85.6417642,29.3973452 L85.6417642,31.047867 Z" id="Fill-3" fill="#FEFEFE"></path>
                    <path d="M62.8138396,31.047867 C63.1077009,30.6299549 63.5322775,30.4863595 64.0038454,30.4863595 L67.0384263,30.4863595 L67.0384263,38.2708806 L67.0384263,38.2708806 C66.8868627,39.5536662 66.4814798,39.8798093 66.1012471,39.973889 L66.0142139,39.9956759 C66.0026315,39.9976565 65.991711,40.0006275 65.9801286,40.0026081 L65.9801286,40.2293898 L69.7351329,40.2293898 L69.7351329,40.0026081 L69.7344711,40.0026081 L69.7400968,40.0026081 L69.624935,39.973889 C69.2456951,39.8798093 68.840974,39.5543264 68.6894104,38.2708806 L68.6894104,38.2708806 L68.6894104,30.4863595 L71.7302789,30.4863595 C72.2005231,30.4863595 72.6366821,30.6296248 72.9318671,31.047867 L72.9318671,29.3973452 L62.8138396,29.3973452 L62.8138396,31.047867 Z" id="Fill-5" fill="#FEFEFE"></path>
                    <path d="M77.2683725,35.9542412 L78.9147237,32.5188451 L80.5567728,35.9542412 L77.2683725,35.9542412 Z M83.7564853,38.6181834 L79.129163,29.352484 L74.6517497,38.7670605 C74.2506688,39.6018944 73.9733538,39.8669682 73.5411659,39.9980197 L73.5411659,40.2294228 L76.0184694,40.2294228 L76.0184694,39.992738 C75.9728017,39.9755726 75.9330908,39.9557663 75.8940416,39.9356299 C75.7888075,39.8765413 75.7239462,39.8049086 75.6891991,39.7200718 C75.6302945,39.575156 75.7093855,39.2245851 75.8377844,38.9529092 L76.7508061,37.0406147 L81.0759939,37.0406147 L81.859624,38.6805731 C82.1352844,39.2754212 82.0439491,39.8012775 81.4813769,40.0026411 L81.4813769,40.2310733 L84.9405344,40.2310733 L84.9405344,39.9980197 C84.3405676,39.8016076 84.1370488,39.3807245 83.7564853,38.6181834 L83.7564853,38.6181834 Z" id="Fill-7" fill="#FEFEFE"></path>
                    <path d="M48.8321652,38.1208482 L48.8275322,38.1208482 C48.806353,38.2076656 48.7788863,38.2872208 48.7487721,38.3641351 C48.5161319,38.8975838 48.0349672,39.1501136 47.2543155,39.1501136 L43.6330048,39.1501136 L43.6330048,34.8927576 L46.6123212,34.8927576 C47.1186363,34.8927576 47.4680929,35.0941213 47.6788921,35.270397 C47.6851796,35.2769991 47.6934527,35.2842614 47.6990785,35.2902033 L47.6990785,35.2875624 C47.7427605,35.3251943 47.7821406,35.3618359 47.8125857,35.3941861 L47.80696,33.340937 C47.5180626,33.6495846 47.0736305,33.8357634 46.6196016,33.8390645 L43.6330048,33.8390645 L43.6330048,30.4148919 L47.494236,30.4148919 C47.9929397,30.4148919 48.3390871,30.6093234 48.5505481,30.7832884 C48.559814,30.7925313 48.5710655,30.8027645 48.5793386,30.8113472 L48.5793386,30.807386 C48.6233516,30.8456781 48.6693501,30.8826498 48.7001262,30.9153301 L48.7001262,30.6779851 L48.7001262,29.3975102 L41.3370481,29.3975102 C41.7219137,29.6447584 41.8271478,30.0491363 41.8271478,30.7509381 L41.8271478,38.7206478 C41.8271478,39.632066 41.4982085,39.8809647 41.1609961,39.9829669 C41.1371695,39.9898991 41.1133429,39.9968313 41.0895163,40.0027732 L41.0895163,40.2295549 L49.0548776,40.2295549 L49.0548776,38.1208482 L48.8321652,38.1208482 Z" id="Fill-9" fill="#FEFEFE"></path>
                    <path d="M106.210266,38.1208482 L106.205633,38.1208482 C106.184454,38.2076656 106.156987,38.2872208 106.126873,38.3641351 C105.894233,38.8975838 105.413068,39.1501136 104.632416,39.1501136 L101.011106,39.1501136 L101.011106,34.8927576 L103.990422,34.8927576 C104.496737,34.8927576 104.846194,35.0941213 105.056993,35.270397 C105.063281,35.2769991 105.071554,35.2842614 105.077179,35.2902033 L105.077179,35.2875624 C105.120862,35.3251943 105.160242,35.3618359 105.190687,35.3941861 L105.185061,33.340937 C104.896164,33.6495846 104.451732,33.8357634 103.997703,33.8390645 L101.011106,33.8390645 L101.011106,30.4148919 L104.872337,30.4148919 C105.371041,30.4148919 105.717188,30.6093234 105.928649,30.7832884 C105.937915,30.7925313 105.949166,30.8027645 105.95744,30.8113472 L105.95744,30.807386 C106.001453,30.8456781 106.047451,30.8826498 106.078227,30.9153301 L106.078227,30.6779851 L106.078227,29.3975102 L98.7151491,29.3975102 C99.1000147,29.6447584 99.2052488,30.0491363 99.2052488,30.7509381 L99.2052488,38.7206478 C99.2052488,39.632066 98.8763095,39.8809647 98.5390971,39.9829669 C98.5152705,39.9898991 98.4914439,39.9968313 98.4676173,40.0027732 L98.4676173,40.2295549 L106.432979,40.2295549 L106.432979,38.1208482 L106.210266,38.1208482 Z" id="Fill-11" fill="#FEFEFE"></path>
                    <polygon id="Fill-13" fill="#FEFEFE" points="107.867571 29.637199 108.555233 29.637199 108.555233 31.5775525 108.850749 31.5775525 108.850749 29.637199 109.540396 29.637199 109.540396 29.3975432 107.867571 29.3975432"></polygon>
                    <path d="M111.524952,29.3974442 L111.125195,30.4527879 C111.024263,30.728425 110.943517,30.9677507 110.882958,31.18694 L110.875678,31.18694 C110.815119,30.9604884 110.741653,30.7201724 110.648333,30.4527879 L110.264791,29.3974442 L109.890846,29.3974442 L109.73498,31.5774534 L110.011633,31.5774534 L110.072192,30.6435882 C110.092379,30.314144 110.108925,29.950369 110.116205,29.678363 L110.121831,29.678363 C110.18603,29.9384853 110.274057,30.2170934 110.382269,30.5264011 L110.750919,31.5662299 L110.970984,31.5662299 L111.369087,30.5072551 C111.482925,30.2071902 111.574591,29.9308929 111.653351,29.678363 L111.658977,29.678363 C111.658977,29.9480583 111.680818,30.3154645 111.697364,30.6211411 L111.752298,31.5774534 L112.038548,31.5774534 L111.899228,29.3974442 L111.524952,29.3974442 Z" id="Fill-15" fill="#FEFEFE"></path>
                    <path d="M74.2261473,6.82622816 C74.2261473,5.03772271 74.9561675,4.38576659 75.7871198,4.11904226 L70.6971646,4.11904226 C71.527786,4.38576659 72.254497,5.04333449 72.254497,6.83150983 L72.254497,16.5468114 L61.5388192,4.11904226 L56.4908915,4.11904226 C57.2520186,4.42801995 58.8060418,5.79696275 58.8060418,7.39697861 L58.8060418,19.13615 C58.8060418,21.1491264 58.3586314,21.7228478 57.4052368,21.9255319 L57.4052368,22.5497593 L62.1758496,22.5497593 L62.1758496,21.9255319 C61.2224551,21.7228478 60.7773611,21.1428545 60.7773611,19.129878 L60.7773611,7.79046301 L73.522601,22.5497593 L74.2261473,22.5497593 L74.2261473,6.82622816 Z" id="Fill-17" fill="#FEFEFE"></path>
                    <path d="M42.3325032,15.2058945 L45.1595942,9.30659935 L47.9794049,15.2058945 L42.3325032,15.2058945 Z M25.6889685,12.6541877 L23.8708673,12.6541877 L23.8708673,5.74411304 L25.6889685,5.74411304 C28.7453905,5.74411304 29.9254685,7.35865349 29.9254685,9.23166566 C29.9254685,11.1043477 28.7453905,12.6541877 25.6889685,12.6541877 L25.6889685,12.6541877 Z M49.5668514,22.1575623 L49.5668514,22.5497263 L55.5069526,22.5497263 L55.5069526,22.1496398 C54.4767835,21.8122731 54.1273269,21.0896747 53.4737503,19.7801506 L45.5279136,3.86945035 L37.8392055,20.0359815 C37.172061,21.4244005 36.6975147,21.7386598 35.9820552,21.8667403 C34.7261954,21.9169162 34.3919613,21.7214944 32.8948572,19.3170142 L29.1971029,13.6573749 C31.4639382,12.9215722 32.8786419,11.3862568 32.8786419,9.15706207 C32.8786419,5.69624791 29.821889,4.11933936 26.5589699,4.11933936 L19.2756448,4.11933936 C20.1065971,4.38606369 20.8326462,5.04330148 20.8326462,6.83180692 L20.8326462,19.129845 C20.8326462,21.1428215 20.2766925,21.7231449 19.3229671,21.9254989 L19.3229671,22.5497263 L25.3778991,22.5497263 L25.3778991,21.9254989 C24.4245046,21.7231449 23.8708673,21.1428215 23.8708673,19.129845 L23.8708673,14.1469197 L26.0298211,14.1495605 L31.4311766,22.5451048 L40.1864555,22.5451048 L40.1864555,22.140727 C40.1080263,22.1113477 40.0398558,22.0773469 39.972678,22.042686 C39.7919931,21.9410138 39.6801405,21.8178849 39.6209049,21.6723089 C39.5199728,21.4234102 39.6553211,20.8212998 39.8763789,20.3551924 L41.443639,17.0713142 L48.8705855,17.0713142 L50.216126,19.8877647 C50.6896795,20.9087775 50.533152,21.8116129 49.5668514,22.1575623 L49.5668514,22.1575623 Z" id="Fill-19" fill="#FEFEFE"></path>
                    <path d="M8.03485549,20.6015823 L4.80734538,20.6015823 L4.80734538,11.3566795 L7.09701445,11.3566795 C11.383815,11.3566795 13.0053468,13.5746507 13.0053468,15.7414558 C13.0053468,18.3535716 11.3546936,20.6015823 8.03485549,20.6015823 L8.03485549,20.6015823 Z M4.80734538,1.73413726 L6.37990029,1.73413726 C9.57100867,1.73413726 11.0396532,3.61771277 11.0396532,5.70463256 C11.0396532,7.79089215 9.57100867,9.57378582 6.37990029,9.57378582 L4.80734538,9.57378582 L4.80734538,1.73413726 Z M11.0336965,10.1990035 C12.5059812,9.61174782 14.3399668,7.85394208 14.3399668,5.55806622 C14.3399668,1.74007914 11.1789725,9.90313092e-05 7.80486272,9.90313092e-05 L0,9.90313092e-05 C0.859080925,0.275406072 1.60928757,0.955751168 1.60928757,2.80499582 L1.60928757,19.0061879 C1.60928757,21.087496 1.0344711,21.688616 0.0483150289,21.8969119 L0.0483150289,22.542596 L8.00771965,22.542596 C13.7277558,22.542596 16.3797876,19.8845957 16.3797876,16.0639677 C16.3797876,12.8682274 13.9402095,10.7862592 11.0336965,10.1990035 L11.0336965,10.1990035 Z" id="Fill-21" fill="#FEFEFE"></path>
                    <path d="M87.5283999,22.7155707 C89.8025155,22.7155707 91.9101759,22.1352472 94.3510776,20.451715 L94.3510776,16.3164976 L93.79016,16.3164976 C92.6560805,19.7512335 90.3975184,21.1205064 87.6094764,21.1205064 C84.1503189,21.1205064 81.2855025,18.155509 81.2855025,13.2627021 C81.2855025,8.3695651 84.2297409,5.31775025 87.6879056,5.31775025 C90.5765487,5.31775025 92.6133912,7.01679741 94.3510776,9.46221055 L94.3510776,5.74886655 C92.2109866,4.43340065 89.8025155,3.81016361 87.87554,3.81016361 C82.406014,3.81016361 77.9573912,7.73180347 77.9573912,13.2627021 C77.9573912,18.794591 82.0595357,22.7155707 87.5283999,22.7155707" id="Fill-23" fill="#FEFEFE"></path>
                    <path d="M106.558664,21.0895096 C102.892678,21.0895096 100.550061,17.4557208 100.550061,13.2627351 C100.550061,9.06941936 102.892678,5.43596062 106.558664,5.43596062 C110.224649,5.43596062 112.567266,9.06941936 112.567266,13.2627351 C112.567266,17.4557208 110.224649,21.0895096 106.558664,21.0895096 M106.558664,3.81052673 C101.401862,3.81052673 97.2202954,8.04213458 97.2202954,13.2627351 C97.2202954,18.4830055 101.401862,22.7156037 106.558664,22.7156037 C111.715466,22.7156037 115.897032,18.4830055 115.897032,13.2627351 C115.897032,8.04213458 111.715466,3.81019662 106.558664,3.81052673" id="Fill-25" fill="#FEFEFE"></path>
                    <polygon id="Fill-27" fill="#FEFEFE" points="190.86743 7.27942844 189.810125 6.87340007 189.823693 7.21170199"></polygon>
                    <polygon id="Fill-29" fill="#FEFEFE" points="201.142977 21.2357128 206.604561 21.3370549 201.136359 20.8643454"></polygon>
                    <polygon id="Fill-31" fill="#FEFEFE" points="201.13626 20.290624 205.833076 20.5269788 201.13626 20.0004623"></polygon>
                    <polygon id="Fill-33" fill="#FEFEFE" points="203.27731 5.12995387 203.27731 8.11475754 203.985489 8.44618232 203.985489 5.52112754"></polygon>
                    <polygon id="Fill-35" fill="#FEFEFE" points="200.351207 9.77960589 202.889069 10.5490792 200.351207 9.4016364"></polygon>
                    <polygon id="Fill-37" fill="#FEFEFE" points="200.351207 10.6639555 204.44574 11.8589333 200.351207 10.1037684"></polygon>
                    <polygon id="Fill-39" fill="#FEFEFE" points="209.908713 16.6029952 212.228497 17.0298201 209.908713 16.1421695"></polygon>
                    <polygon id="Fill-41" fill="#FEFEFE" points="209.908713 15.2207491 209.908713 15.7472656 212.742754 16.3952605"></polygon>
                    <polygon id="Fill-43" fill="#FEFEFE" points="209.908713 14.2621261 209.908713 14.7988758 213.595547 15.7337313"></polygon>
                    <path d="M167.149582,31.247118 C163.505107,29.9366037 142.951364,22.5554701 142.951364,22.5554701 L142.120742,22.5554701 L142.120742,21.9253008 C141.168672,21.723277 140.613049,21.144604 140.613049,19.1316276 L140.613049,5.96178386 L144.325364,5.96178386 C145.365461,5.96178386 146.166961,6.56686516 146.656729,7.50601208 L146.656729,4.1191413 L116.911549,4.1191413 L116.911549,7.50601208 C117.401317,6.56686516 118.202817,5.96178386 119.2449,5.96178386 L122.955229,5.96178386 L122.955229,19.1316276 C122.955229,21.144604 122.397621,21.723277 121.443896,21.9253008 L121.443896,22.5498583 L127.500482,22.5498583 L127.500482,21.9253008 C126.546757,21.723277 125.990803,21.144604 125.990803,19.1316276 L125.990803,5.96178386 L137.57913,5.96178386 L137.57913,19.1316276 C137.57913,21.144604 137.019867,21.723277 136.066141,21.9253008 L136.066141,22.5564604 L136.067134,22.5564604 C136.10519,22.5719753 155.302472,30.3763027 159.855336,32.1796628 C163.667591,33.6898903 169.149361,34.0949284 173.451384,34.4474798 C177.753407,34.8000313 189.330482,35.7962863 189.330482,35.7962863 C189.330482,35.7962863 180.518946,34.2976124 177.149469,33.7265319 C173.779992,33.1554513 170.786446,32.5549915 167.149582,31.247118" id="Fill-45" fill="#FEFEFE"></path>
                    <path d="M178.155315,29.8294848 C175.849431,29.1263625 154.074575,22.5612469 154.074575,22.5612469 L147.391548,22.5579459 C147.391548,22.5579459 167.498211,29.2613752 171.589766,30.6405512 C175.665437,32.0141155 182.454691,32.2993257 183.807512,32.3623756 C185.160333,32.4254255 202.89261,33.5144398 202.89261,33.5144398 C202.89261,33.5144398 190.223814,31.8942876 187.702166,31.6156795 C185.659367,31.3898881 180.428107,30.5223739 178.155315,29.8294848" id="Fill-47" fill="#FEFEFE"></path>
                    <path d="M187.727019,28.5420118 C186.023087,28.1052837 164.732043,22.5595304 164.732043,22.5595304 L158.216464,22.5562293 C158.216464,22.5562293 180.2597,28.798833 182.04901,29.3015819 C186.569113,30.5711633 191.30895,30.4935888 192.958941,30.5728138 C194.609263,30.6520389 211.176354,31.408308 211.176354,31.408308 C211.176354,31.408308 198.070737,30.0819486 196.421408,29.9112847 C194.771416,29.7406207 191.008801,29.3831177 187.727019,28.5420118" id="Fill-49" fill="#FEFEFE"></path>
                    <path d="M199.197338,14.410673 L178.62043,15.5043088 L199.197338,13.9448958 L199.197338,14.410673 Z M199.197338,15.6257872 L191.824001,15.4234332 L199.197338,14.9371895 L199.197338,15.6257872 Z M199.197338,16.6619848 L192.321381,16.2942485 C192.321381,16.2942485 199.136448,15.8892105 199.197338,15.868744 L199.197338,16.6619848 Z M199.197338,17.5648202 L192.818761,17.2155698 L199.197338,16.896689 L199.197338,17.5648202 Z M199.197338,18.582532 L193.377031,18.1979604 L199.197338,17.9675476 L199.197338,18.582532 Z M199.197338,20.1825479 L193.874742,19.9125225 L199.197338,19.7709077 L199.197338,20.1825479 Z M199.197338,21.3910599 L194.209638,20.992624 L199.197338,20.9236322 L199.197338,21.3910599 Z M188.392972,22.0750362 L188.392972,16.5844103 L190.769343,16.479107 L190.774638,22.0750362 L188.392972,22.0750362 Z M184.900722,16.3143849 L184.900722,22.0780071 L184.581049,22.0803179 L184.581049,22.5576488 L184.17004,22.5576488 L184.17004,15.963484 L190.768351,15.5244452 L190.768682,16.0324758 L184.900722,16.3143849 Z M187.90552,22.0750362 L185.388174,22.0750362 L185.388174,16.7177724 L187.90552,16.6061972 L187.90552,22.0750362 Z M183.494953,17.2713575 L178.965585,17.0973925 L183.494953,16.8154833 L183.494953,17.2713575 Z M183.494953,18.076482 L179.337875,17.8807301 L183.494953,17.671444 L183.494953,18.076482 Z M183.494953,18.9202288 L180.082125,18.6908062 L183.494953,18.5521624 L183.494953,18.9202288 Z M180.210855,14.1878526 L182.54553,13.9854986 L182.54553,14.3297975 L180.210855,14.5219182 L180.210855,14.1878526 Z M185.388174,14.3162632 L189.407919,13.9785664 L189.407919,14.3430016 L185.388174,14.6536299 L185.388174,14.3162632 Z M185.841541,6.82619515 L186.032816,6.79813628 L186.027521,6.10227628 L185.829628,6.13264588 L185.829628,6.69019215 L185.388174,7.20581517 L185.388174,8.16410814 L183.953284,7.75444862 L183.966852,7.2682049 L186.636754,4.1223103 L189.495614,6.3759328 L189.500247,6.19536571 L186.73537,3.99092876 L189.863602,5.22915023 L191.33688,6.86976893 L191.33688,7.21439788 L189.407919,9.29867684 L189.407919,6.83609828 L187.205283,5.08456452 L186.263802,6.18315185 C186.637085,6.31420328 187.342617,6.56145145 187.453807,6.59842314 L187.980971,7.61547469 L188.744745,7.51149181 L188.75368,7.80660511 L187.846284,7.95548218 L187.716231,12.3719485 L187.584854,7.99839575 L186.890573,8.11228176 L186.910098,13.9541387 L186.173128,14.0191693 L186.173128,7.86239275 L187.409463,7.69370942 L187.164579,7.26028239 L185.841541,6.82619515 Z M182.362859,10.0503245 L181.868789,10.1226173 L184.261375,8.11426238 L182.362859,10.0503245 Z M179.557609,10.4401777 L184.366278,6.58422865 L184.038663,6.97012065 C182.837737,8.1235053 180.682092,10.1972209 180.79957,10.1090831 C180.962054,9.98760465 183.824885,7.74982716 183.824885,7.74982716 L181.571287,10.1668513 L179.557609,10.4401777 Z M177.862612,10.6088611 L182.031273,7.36822652 L178.647566,10.4738484 L177.862612,10.6088611 Z M190.443383,8.99531093 L190.078041,9.04251586 L192.27075,6.94965418 L190.443383,8.99531093 Z M191.590699,8.84676397 L191.066183,8.91443536 L195.173953,4.8029855 L191.590699,8.84676397 Z M198.86906,3.56773497 L195.431082,7.88153881 L199.68115,3.25380571 L195.600515,8.32684959 L193.299264,8.63087571 L197.864041,4.01337586 L194.618992,7.98255074 L198.86906,3.56773497 Z M202.706465,2.90950686 L199.031544,7.89144194 L197.031765,8.14463198 L198.963705,6.10590743 L198.138047,7.39529508 L201.650484,3.47299501 L198.86906,7.31441951 L202.706465,2.90950686 Z M192.124812,8.77876247 L194.098117,6.78790304 L192.477578,8.73188765 L192.124812,8.77876247 Z M192.090396,13.1473636 L194.498867,12.9374173 L194.498867,13.3203383 L192.088079,13.5197214 L192.090396,13.1473636 Z M199.195352,11.633505 L199.195352,12.1425259 L195.935411,11.9296086 C195.935411,11.9296086 199.063313,11.6486898 199.195352,11.633505 L199.195352,11.633505 Z M199.195352,10.1071024 L199.195352,10.6824743 L194.791735,10.586414 L199.195352,10.1071024 Z M177.672992,14.1588034 C177.672992,14.1588034 176.140148,14.056141 174.191001,14.0158682 C175.454803,13.8940597 177.672992,13.6880746 177.672992,13.6880746 L177.672992,14.1588034 Z M177.672992,14.9117715 C177.672992,14.9117715 175.200984,14.8916351 173.341848,14.8833825 C174.744307,14.7701567 177.672992,14.5120151 177.672992,14.5120151 L177.672992,14.9117715 Z M170.039218,17.5565676 L170.309914,22.5592993 L169.876734,22.5592993 L170.039218,17.5565676 Z M170.7699,18.2586996 L171.094868,22.5596294 L170.634552,22.5596294 L170.7699,18.2586996 Z M221.845504,24.8492333 C222.444147,24.8396602 226.552248,24.8330582 226.552248,24.8330582 C226.552248,24.8330582 223.795975,24.6452288 223.12519,24.5957131 C222.454406,24.5458674 221.190935,24.4524478 220.1697,24.2850849 C219.149459,24.1173919 209.737956,22.5592993 209.737956,22.5592993 L209.494065,22.5576488 L209.494065,13.8782147 L200.032923,13.414088 L199.667582,12.8713964 L209.886872,13.45205 L214.620752,15.2534295 L214.620752,14.530831 L209.886872,12.5528457 L209.886872,12.5610983 L199.667582,12.047786 L199.667582,9.36106657 L194.240083,9.96647797 L194.240083,9.96647797 L194.240083,12.6046721 L193.48028,12.6743241 L193.48028,10.4005652 L193.235065,10.4309348 L193.238374,12.6967712 L192.290936,12.7835886 L192.290936,10.1840168 L189.768958,10.4655958 L189.768958,10.4655958 L189.394351,9.95525443 L189.259995,9.96185651 L189.259995,9.62316943 L199.346254,8.3651417 L199.346254,8.82299645 L204.154592,2.52130413 L207.734537,12.1478076 L207.734537,11.7427696 L204.147974,2.00832195 L204.140693,2.01756487 L188.790413,4.66401156 L186.707572,3.83379908 L185.524846,5.22716961 L183.35762,5.60084775 L176.831781,11.0254528 L176.833105,11.1522129 L185.229,10.1242679 L185.388174,9.98265309 L185.388174,9.80868809 L185.389498,9.80604725 L185.856102,10.9019937 L182.253323,11.3034007 L182.253323,13.701939 L181.544151,13.7636685 L181.544151,11.7642263 L181.273455,11.8048292 L181.273455,13.787436 L180.517622,13.853787 L180.517622,11.4978321 L177.672992,11.8150624 L177.672992,11.6866518 L177.464179,11.6453888 L167.90045,15.315159 L164.469422,15.9093469 L164.469422,16.2470436 L167.937845,15.7271292 L177.672992,12.1425259 L177.672992,12.1626623 L177.672992,12.547564 L167.927586,16.1707895 L164.7335,16.5926629 L164.7335,22.5596294 L165.376156,22.5596294 L165.376156,17.2188709 L167.758484,17.070654 L167.751865,22.5596294 L168.564948,22.5596294 C168.696656,22.5919796 188.390656,27.4729028 191.008271,28.1162762 C193.634491,28.7619603 199.217524,28.9996354 200.781144,29.0359469 C202.344433,29.0725885 216.644358,29.4908307 216.644358,29.4908307 C216.644358,29.4908307 205.097066,28.5731406 203.649932,28.448031 C202.202466,28.3232516 198.792948,28.0535563 196.130326,27.4445138 C193.39093,26.8176456 174.854505,22.5602896 174.854505,22.5602896 L172.82726,22.5602896 L172.82726,16.0443595 L170.039218,16.2737821 L169.429985,16.9623798 L169.429985,22.5589692 L168.617896,22.5586391 L168.617896,17.023119 L169.592469,15.9093469 L176.535935,15.3725972 L177.672992,16.415727 L177.672992,22.5596294 L178.649552,22.5596294 C178.795489,22.5919796 196.3355,26.4928229 198.92962,27.0853602 C201.555177,27.6851599 205.937615,27.7161897 207.399641,27.7260928 C208.861667,27.7356658 220.488381,27.8977471 220.488381,27.8977471 C220.488381,27.8977471 211.379343,27.2913454 209.897131,27.2098096 C208.414919,27.1282738 205.546462,26.8737633 203.559589,26.4743371 C201.597205,26.0798623 185.062875,22.6434759 184.658816,22.5596294 L188.392641,22.5596294 C188.812254,22.6434759 204.609283,25.8058757 206.197391,26.1181544 C207.812304,26.4360449 212.123593,26.5476202 213.179575,26.5697372 C214.235225,26.5915241 223.168541,26.6284958 223.168541,26.6284958 C223.168541,26.6284958 216.468306,26.2640606 215.114823,26.1854957 C213.76101,26.107261 211.52826,25.9669666 209.889851,25.6470955 C208.271628,25.3308555 194.15305,22.6266406 193.801939,22.5596294 L197.323972,22.5596294 C197.748218,22.6378641 210.936566,25.0786558 212.263575,25.3268943 C213.612424,25.5787639 217.077539,25.6401633 217.794984,25.6484159 C218.512429,25.6566685 225.036281,25.683407 225.036281,25.683407 C225.036281,25.683407 220.116422,25.4470523 219.206047,25.3764099 C218.295673,25.3054375 215.888526,25.1146372 215.024481,24.9568473 C214.16904,24.8007079 202.376864,22.6022129 202.148526,22.5596294 L202.148195,22.5596294 C202.146209,22.5589692 200.418781,22.5576488 200.418781,22.5576488 L200.418781,14.8965867 L208.563835,14.309331 L208.563835,22.5579789 C208.563835,22.5579789 205.568965,22.5592993 205.569296,22.5596294 C205.664602,22.5758045 215.907719,24.3415328 217.531237,24.6346654 C219.171962,24.930769 221.24653,24.8591364 221.845504,24.8492333 L221.845504,24.8492333 Z" id="Fill-51" fill="#FEFEFE"></path>
                    <path d="M224.058365,23.7779126 C223.246276,23.6478514 216.30281,22.5575167 216.30281,22.5575167 L214.405287,22.5588371 L214.405287,15.296211 L214.22394,15.3354934 L214.22394,22.5588371 L212.959477,22.5594973 C212.959477,22.5594973 221.676368,23.9888492 222.043695,24.0416659 C223.225758,24.2119998 225.073312,24.1307941 225.474393,24.1235318 C225.875143,24.1162695 227.905698,24.0499186 227.905698,24.0499186 C227.905698,24.0499186 226.64686,23.9687129 226.286813,23.9687129 C225.926767,23.969043 224.870455,23.9079737 224.058365,23.7779126" id="Fill-53" fill="#FEFEFE"></path>
                    <g id="Group-57" transform="translate(219.072254, 22.552400)">
                        <mask id="mask-2" fill="white">
                            <use xlink:href="#path-1"></use>
                        </mask>
                        <g id="Clip-56"></g>
                        <path d="M9.63203121,0.970836937 C8.61013526,0.889961368 8.37087659,0.869494897 8.04690116,0.823280286 C7.61537514,0.76155077 2.68691127,0.0056117742 2.68691127,0.0056117742 L0.294324566,0.0056117742 C0.280756647,0.00231073055 6.10106301,0.908117108 6.72684191,0.999225912 C7.50352254,1.11278181 8.77261936,1.01804186 9.63203121,0.970836937" id="Fill-55" fill="#FEFEFE" mask="url(#mask-2)"></path>
                    </g>
                </g>
            </g>
        </g>
    </g>
</svg>