<?xml version="1.0" encoding="UTF-8" standalone="no"?>
<svg width="20px" height="16px" viewBox="0 0 20 16" version="1.1" xmlns="http://www.w3.org/2000/svg" xmlns:xlink="http://www.w3.org/1999/xlink">
    <!-- Generator: Sketch 41.2 (35397) - http://www.bohemiancoding.com/sketch -->
    <title>icon_twitter</title>
    <desc>Created with Sketch.</desc>
    <defs>
        <polygon id="path-1" points="9.80393333 15.9355294 19.6078431 15.9355294 19.6078431 0 9.80393333 0 2.35294137e-05 0 2.35294137e-05 15.9355294 9.80393333 15.9355294"></polygon>
    </defs>
    <g id="P1_BE_DESIGN_Homepage-and-Navigation" stroke="none" stroke-width="1" fill="none" fill-rule="evenodd">
        <g id="P1_BE_DESIGN_Homepage-Variations-01_LRG" transform="translate(-806.000000, -6326.000000)">
            <g id="FOOTER" transform="translate(0.000000, 6192.000000)">
                <g id="social-icons" transform="translate(722.000000, 134.000000)">
                    <g id="icon_twitter" transform="translate(84.000000, 0.000000)">
                        <mask id="mask-2" fill="white">
                            <use xlink:href="#path-1"></use>
                        </mask>
                        <g id="Clip-2"></g>
                        <path d="M6.16653333,15.9355294 C13.5659843,15.9355294 17.6124941,9.8052549 17.6124941,4.48956863 C17.6124941,4.31537255 17.6089647,4.14203922 17.6009647,3.9694902 C18.3863765,3.40172549 19.0692,2.6932549 19.6078667,1.88658824 C18.8870039,2.20682353 18.1113176,2.42258824 17.2975922,2.51992157 C18.128102,2.02196078 18.7658275,1.23388235 19.0665333,0.294588235 C18.2891216,0.755372549 17.4284941,1.09058824 16.5121804,1.27105882 C15.7780627,0.489098039 14.732651,0 13.5757098,0 C11.3539843,0 9.55225882,1.80172549 9.55225882,4.02258824 C9.55225882,4.33835294 9.58763137,4.6452549 9.65665098,4.93984314 C6.31335686,4.77176471 3.34857255,3.17090196 1.36472941,0.736784314 C1.01892549,1.33113725 0.819866667,2.02196078 0.819866667,2.7587451 C0.819866667,4.15443137 1.53014118,5.3865098 2.61006275,6.10729412 C1.95021961,6.08698039 1.33021961,5.90564706 0.788023529,5.60407843 C0.787160784,5.62086275 0.787160784,5.63764706 0.787160784,5.65529412 C0.787160784,7.60384314 2.17406275,9.23035294 4.01461176,9.59921569 C3.67672941,9.69113725 3.3212,9.74070588 2.95414118,9.74070588 C2.69500392,9.74070588 2.44292549,9.71505882 2.19790588,9.66815686 C2.70998431,11.2664314 4.19508235,12.4294902 5.95602353,12.4622745 C4.57892549,13.5412549 2.84449412,14.1843137 0.959631373,14.1843137 C0.635082353,14.1843137 0.314847059,14.1657255 2.35294137e-05,14.128549 C1.78041569,15.2695686 3.89429804,15.9355294 6.16653333,15.9355294" id="Fill-1" fill="#3E464B" mask="url(#mask-2)"></path>
                    </g>
                </g>
            </g>
        </g>
    </g>
</svg>