<?xml version="1.0" encoding="UTF-8" standalone="no"?>
<svg width="133px" height="63px" viewBox="0 0 133 63" version="1.1" xmlns="http://www.w3.org/2000/svg" xmlns:xlink="http://www.w3.org/1999/xlink">
    <!-- Generator: Sketch 41.2 (35397) - http://www.bohemiancoding.com/sketch -->
    <title>Page 1</title>
    <desc>Created with Sketch.</desc>
    <defs>
        <polygon id="path-1" points="51.3606407 0.0507463312 0.08258826 0.0507463312 0.08258826 22.8068233 51.3606407 22.8068233 51.3606407 0.0507463312"></polygon>
        <polygon id="path-3" points="0.0719371069 9.48008386 6.33966667 9.48008386 6.33966667 0.0867706499 0.0719371069 0.0867706499 0.0719371069 9.48008386"></polygon>
    </defs>
    <g id="P1_BE_DESIGN_Homepage-and-Navigation" stroke="none" stroke-width="1" fill="none" fill-rule="evenodd">
        <g id="P1_BE_DESIGN_Homepage-Variations-01_LRG" transform="translate(-732.000000, -14.000000)">
            <g id="HEADER-/-NAV">
                <g id="WHITE-HEADER-/-NAV:-Default" transform="translate(215.000000, 14.000000)">
                    <g id="Navigation:-Default">
                        <g id="Page-1" transform="translate(517.000000, 0.000000)">
                            <polygon id="Fill-1" fill="#FEFEFE" points="101.630681 4.80716457 100.757398 4.30716457 100.76883 4.72376208"></polygon>
                            <polygon id="Fill-2" fill="#FEFEFE" points="110.112373 15.8920222 110.117949 16.2851085 114.628796 16.3920222"></polygon>
                            <polygon id="Fill-3" fill="#FEFEFE" points="110.112373 15.1765268 110.112373 15.4521023 113.991679 15.6765268"></polygon>
                            <polygon id="Fill-4" fill="#FEFEFE" points="111.880827 2.86362662 111.880827 5.33514025 112.465525 5.60950503 112.465525 3.18734361"></polygon>
                            <polygon id="Fill-5" fill="#FEFEFE" points="109.463963 6.71360021 111.560177 7.35071761 109.463963 6.40047862"></polygon>
                            <polygon id="Fill-6" fill="#FEFEFE" points="109.463963 7.44585304 112.845844 8.43512767 109.463963 6.98188658"></polygon>
                            <polygon id="Fill-7" fill="#FEFEFE" points="117.358113 12.3635071 119.273926 12.7170585 117.358113 11.9820732"></polygon>
                            <polygon id="Fill-8" fill="#FEFEFE" points="117.358113 11.2189543 117.358113 11.6550382 119.698857 12.1914994"></polygon>
                            <polygon id="Fill-9" fill="#FEFEFE" points="117.358113 10.4252203 117.358113 10.869669 120.403171 11.6436899"></polygon>
                            <g id="Group-53" transform="translate(0.000000, 0.228080)">
                                <path d="M82.0406178,24.2609845 C79.0304124,23.1757937 62.0538128,17.0658797 62.0538128,17.0658797 L56.3668778,17.0647644 C56.3668778,17.0647644 72.2513159,23.5382675 76.0157457,25.0333325 C79.1648065,26.2835883 83.692383,26.6190159 87.2457415,26.9109468 C90.7991,27.2028776 100.361159,28.0276449 100.361159,28.0276449 C100.361159,28.0276449 93.0832426,26.7868692 90.3002803,26.3139803 C87.5170392,25.8410914 85.0444103,25.3439447 82.0406178,24.2609845" id="Fill-10" fill="#FEFEFE"></path>
                                <path d="M91.1309587,23.0871549 C89.2262983,22.5049662 71.2411851,17.0689746 71.2411851,17.0689746 L65.7212669,17.0661864 C65.7212669,17.0661864 82.328422,22.6167755 85.7080719,23.7585679 C89.0743382,24.8958992 94.6820866,25.1323436 95.7993423,25.1844841 C96.9168769,25.2366245 111.563049,26.1383478 111.563049,26.1383478 C111.563049,26.1383478 101.098988,24.7969159 99.0164367,24.566048 C97.3289818,24.3792346 93.0082941,23.6609788 91.1309587,23.0871549" id="Fill-12" fill="#FEFEFE"></path>
                                <path d="M99.0368468,22.0211195 C97.6293331,21.6594822 80.0437776,17.0674969 80.0437776,17.0674969 L74.662157,17.0647086 C74.662157,17.0647086 92.8689369,22.2338637 94.3469935,22.6498721 C98.0804736,23.7013249 101.995191,23.637195 103.358371,23.7027191 C104.721272,23.7682432 118.404937,24.3944864 118.404937,24.3944864 C118.404937,24.3944864 107.580633,23.2961908 106.21801,23.154826 C104.855388,23.01374 101.747593,22.717348 99.0368468,22.0211195" id="Fill-14" fill="#FEFEFE"></path>
                                <g id="Group-18" transform="translate(79.744235, 0.000000)">
                                    <mask id="mask-2" fill="white">
                                        <use xlink:href="#path-1"></use>
                                    </mask>
                                    <g id="Clip-17"></g>
                                    <path d="M31.2040306,17.067469 C31.2023577,17.0671901 29.775605,17.065796 29.775605,17.065796 L29.775605,10.7225046 L36.5028398,10.2362321 L36.5028398,17.0660748 C36.5028398,17.0660748 34.0293744,17.067469 34.0296532,17.067469 C34.1082822,17.0811314 42.5686994,18.5430161 43.9098524,18.7855948 C45.2649468,19.0309616 46.9783325,18.9715717 47.4732486,18.9634857 C47.967886,18.9553998 51.3606407,18.9498233 51.3606407,18.9498233 C51.3606407,18.9498233 49.0843052,18.7945172 48.530278,18.7535298 C47.9762507,18.7122635 46.932605,18.6350287 46.0891564,18.4961734 C45.2465442,18.3575969 37.4728755,17.067469 37.4728755,17.067469 L37.2715631,17.065796 L37.2715631,9.87905597 L29.4569069,9.49483375 L29.1552172,9.04564507 L37.5958377,9.52634109 L41.5058147,11.0177813 L41.5058147,10.4196996 L37.5958377,8.78187568 L37.5958377,8.78856751 L29.1552172,8.36363669 L29.1552172,6.13888407 L24.6722528,6.64049203 L24.6722528,6.64049203 L24.6722528,8.82481488 L24.0446155,8.88253187 L24.0446155,6.99989874 L23.841909,7.02499308 L23.8446973,8.90093438 L23.0623115,8.97287149 L23.0623115,6.8203348 L20.9792025,7.05343333 L20.9792025,7.05343333 L20.6699845,6.63073312 L20.5587329,6.63630964 L20.5587329,6.35608952 L28.8897748,5.3143956 L28.8897748,5.69359895 L32.8610935,0.47537044 L35.818322,8.44644801 L35.818322,8.11102034 L32.855517,0.0507184486 L32.8496616,0.0582467505 L20.170886,2.24981908 L18.4508084,1.56223417 L17.4738021,2.71601614 L15.6837392,3.025513 L10.2934751,7.51712096 L10.2945904,7.62195954 L17.2292717,6.7709826 L17.3605987,6.65359686 L17.3605987,6.50972264 L17.361714,6.50749203 L17.7470516,7.41479182 L14.7714205,7.74715241 L14.7714205,9.73322998 L14.1856071,9.78425514 L14.1856071,8.1288652 L13.9619887,8.16260314 L13.9619887,9.80405178 L13.3376973,9.8589805 L13.3376973,7.90831384 L10.9883094,8.17096792 L10.9883094,8.06473522 L10.8157161,8.03043962 L2.91657568,11.0690853 L0.08258826,11.5609344 L0.08258826,11.8405969 L2.94752537,11.4100895 L10.9883094,8.44198679 L10.9883094,8.45871635 L10.9883094,8.77741447 L2.93916059,11.7775822 L0.300630189,12.1269512 L0.300630189,17.067469 L0.831793711,17.067469 L0.831793711,12.6455675 L2.79918994,12.5226052 L2.79361342,17.067469 L3.46558407,17.067469 C3.57432621,17.0945151 19.840756,21.1358191 22.0027727,21.6686556 C24.172039,22.203165 28.7835421,22.4000161 30.0747853,22.4301294 C31.3660285,22.4602426 43.1773765,22.8068233 43.1773765,22.8068233 C43.1773765,22.8068233 33.6398545,22.0467436 32.4442486,21.9432992 C31.2486428,21.8398547 28.4325002,21.6165151 26.2333996,21.1123977 C23.9707266,20.5932237 8.66039119,17.0683055 8.66039119,17.0683055 L6.98604109,17.0683055 L6.98604109,11.6727436 L4.68293836,11.8629029 L4.17993627,12.4331021 L4.17993627,17.0671901 L3.50908092,17.0669113 L3.50908092,12.4832908 L4.31405157,11.5609344 L10.0492235,11.1167646 L10.9883094,11.9802887 L10.9883094,17.067469 L11.794953,17.067469 C11.9154059,17.0942363 26.4029258,20.3241566 28.5457036,20.8148904 C30.7141333,21.3114795 34.3341312,21.3374103 35.5414478,21.3454962 C36.7490432,21.3535822 46.3523681,21.4876975 46.3523681,21.4876975 C46.3523681,21.4876975 38.8285275,20.9855319 37.6042025,20.918056 C36.3801564,20.8505801 34.0106931,20.6397876 32.3698021,20.3091 C30.7489866,19.9825948 17.0920893,17.1368966 16.7586134,17.067469 L19.8424289,17.067469 C20.1890096,17.1371755 33.2369509,19.7556304 34.5485484,20.0141021 C35.8821732,20.2773138 39.4433388,20.3696052 40.3155065,20.3880078 C41.1873954,20.4061314 48.5659677,20.4368023 48.5659677,20.4368023 C48.5659677,20.4368023 43.0321082,20.1348338 41.9140159,20.0698673 C40.7959237,20.0049008 38.9514897,19.8889092 37.5983472,19.6240245 C36.2619342,19.3622069 24.6000369,17.1232342 24.3103367,17.067469 L27.2193283,17.067469 C27.5698126,17.1324354 38.4627078,19.1533662 39.5590516,19.358861 C40.6732403,19.5677017 43.5351103,19.618448 44.1276155,19.6251398 C44.7201208,19.6318317 50.1087119,19.6541377 50.1087119,19.6541377 C50.1087119,19.6541377 46.0451019,19.4586807 45.2931082,19.3998484 C44.5411145,19.341295 42.5528063,19.1832006 41.8392906,19.0527101 C41.1327455,18.9233348 31.3927958,17.1028799 31.2040306,17.067469 Z M28.7665338,10.3201587 L11.770974,11.2257855 L28.7665338,9.93454235 L28.7665338,10.3201587 Z M28.7665338,11.3261629 L22.6766952,11.1585885 L28.7665338,10.7562426 L28.7665338,11.3261629 Z M28.7665338,12.1843893 L23.0874059,11.8796325 C23.0874059,11.8796325 28.7163451,11.5442048 28.7665338,11.5274753 L28.7665338,12.1843893 Z M28.7665338,12.9319218 L23.4983954,12.6427792 L28.7665338,12.3784522 L28.7665338,12.9319218 Z M28.7665338,13.774534 L23.9595736,13.4561147 L28.7665338,13.2651189 L28.7665338,13.774534 Z M28.7665338,15.0995151 L24.3702843,14.8758966 L28.7665338,14.7585109 L28.7665338,15.0995151 Z M28.7665338,16.0999428 L24.6468797,15.7700916 L28.7665338,15.7129323 L28.7665338,16.0999428 Z M19.8427078,16.6662384 L19.8427078,12.1199805 L21.8053639,12.032708 L21.8098252,16.6662384 L19.8427078,16.6662384 Z M16.9582528,11.8963621 L16.9582528,16.6690266 L16.6942046,16.6706996 L16.6942046,17.065796 L16.3545945,17.065796 L16.3545945,11.6058254 L21.8045275,11.2425151 L21.8050851,11.6629847 L16.9582528,11.8963621 Z M19.440083,16.6662384 L17.3605987,16.6662384 L17.3605987,12.2303956 L19.440083,12.1378254 L19.440083,16.6662384 Z M15.7969426,12.6887855 L12.0559342,12.5449113 L15.7969426,12.311534 L15.7969426,12.6887855 Z M15.7969426,13.3554585 L12.3634792,13.1931818 L15.7969426,13.0200308 L15.7969426,13.3554585 Z M15.7969426,14.0541964 L12.9782906,13.8640371 L15.7969426,13.7494396 L15.7969426,14.0541964 Z M13.0845233,10.1355759 L15.0128839,9.96800147 L15.0128839,10.2529616 L13.0845233,10.4124501 L13.0845233,10.1355759 Z M17.3605987,10.2418086 L20.6811375,9.96242495 L20.6811375,10.2641147 L17.3605987,10.5214711 L17.3605987,10.2418086 Z M17.7353409,4.03988197 L17.8931564,4.01701824 L17.888974,3.44040608 L17.7253031,3.46577925 L17.7253031,3.92751509 L17.3605987,4.35439769 L17.3605987,5.14793648 L16.1755883,4.80860524 L16.1867413,4.40625933 L18.3919761,1.80118805 L20.7533535,3.66709161 L20.757257,3.51791971 L18.4733933,1.69244591 L21.0572738,2.7176891 L22.2740704,4.07612935 L22.2740704,4.36136834 L20.6811375,6.08730126 L20.6811375,4.04824675 L18.8615191,2.59779392 L18.0841522,3.50760314 C18.3922549,3.61606646 18.9750013,3.82072474 19.0670138,3.8513956 L19.5022612,4.69372893 L20.1332444,4.60729287 L20.1404939,4.85182327 L19.3910096,4.97506436 L19.2836616,8.63214612 L19.1751983,5.01047526 L18.6016532,5.10471845 L18.6178252,9.94207065 L18.009148,9.99588407 L18.009148,4.89810839 L19.0302088,4.75841656 L18.82806,4.39956751 L17.7353409,4.03988197 Z M14.862039,6.70964088 L14.4541166,6.76958847 L16.4298776,5.10667023 L14.862039,6.70964088 Z M12.544995,7.03252138 L16.5168713,3.83968491 L16.2461312,4.1592195 C15.2540683,5.11447736 13.4737644,6.83120901 13.5707958,6.75843543 C13.7049111,6.65777925 16.0693556,4.80470168 16.0693556,4.80470168 L14.208192,6.80611468 L12.544995,7.03252138 Z M11.1447308,7.17193438 L14.5882319,4.48907065 L11.7932801,7.06040398 L11.1447308,7.17193438 Z M21.5362969,5.83607904 L21.2343283,5.87511468 L23.045582,4.14248994 L21.5362969,5.83607904 Z M22.4837476,5.71311677 L22.050452,5.7691608 L25.4434855,2.36497421 L22.4837476,5.71311677 Z M28.4955149,1.34196164 L25.6559509,4.91372264 L29.1663702,1.08209581 L25.7956428,5.28260943 L23.8951648,5.53438931 L27.6654499,1.71084843 L24.9850956,4.99764927 L28.4955149,1.34196164 Z M31.66493,0.796856813 L28.6296302,4.92208742 L26.977865,5.13176457 L28.573865,3.44375199 L27.8918566,4.51137673 L30.7930411,1.26361153 L28.4955149,4.44417966 L31.66493,0.796856813 Z M22.9248503,5.65679392 L24.5548671,4.00837463 L23.2162235,5.61803711 L22.9248503,5.65679392 Z M22.8966889,9.27400356 L24.8858335,9.10001614 L24.8858335,9.41732013 L22.8944583,9.58238512 L22.8966889,9.27400356 Z M28.7648608,8.02068071 L28.7648608,8.44198679 L26.072517,8.26576876 C26.072517,8.26576876 28.6558398,8.03322788 28.7648608,8.02068071 L28.7648608,8.02068071 Z M28.7648608,6.75676247 L28.7648608,7.2332761 L25.1275757,7.15353187 L28.7648608,6.75676247 Z M10.9883094,10.1115969 C10.9883094,10.1115969 9.72216059,10.0265549 8.11249811,9.99309581 C9.15642264,9.89243962 10.9883094,9.72179811 10.9883094,9.72179811 L10.9883094,10.1115969 Z M10.9883094,10.7350518 C10.9883094,10.7350518 8.94674549,10.7183222 7.41097191,10.7113516 C8.56949392,10.617666 10.9883094,10.4040853 10.9883094,10.4040853 L10.9883094,10.7350518 Z M4.68293836,12.9249512 L4.90655681,17.067469 L4.54882306,17.0671901 L4.68293836,12.9249512 Z M5.17506625,17.067469 L5.28687547,13.5063034 L5.55510608,17.067469 L5.17506625,17.067469 Z" id="Fill-16" fill="#FEFEFE" mask="url(#mask-2)"></path>
                                </g>
                                <path d="M129.045216,18.076373 C128.37436,17.9687461 122.639188,17.0659075 122.639188,17.0659075 L121.072186,17.066744 L121.072186,11.0533038 L120.922457,11.0859264 L120.922457,17.0670229 L119.877975,17.0675805 C119.877975,17.0675805 127.077819,18.250918 127.381182,18.2946937 C128.357631,18.4357797 129.883645,18.3685826 130.214891,18.3624484 C130.545857,18.3565931 132.222996,18.3013855 132.222996,18.3013855 C132.222996,18.3013855 131.183253,18.2344673 130.885746,18.2344673 C130.588239,18.2344673 129.716071,18.1839998 129.045216,18.076373" id="Fill-19" fill="#FEFEFE"></path>
                                <path d="M132.882586,17.8654969 C132.03858,17.7982998 131.840892,17.7818491 131.573219,17.7433711 C131.21688,17.6923459 127.14602,17.0661027 127.14602,17.0661027 L125.169981,17.0661027 C125.158827,17.0635933 129.966066,17.8133564 130.48301,17.8889182 C131.124588,17.9828826 132.172695,17.9045325 132.882586,17.8654969" id="Fill-21" fill="#FEFEFE"></path>
                                <g id="Group-25" transform="translate(44.890985, 52.976939)">
                                    <mask id="mask-4" fill="white">
                                        <use xlink:href="#path-3"></use>
                                    </mask>
                                    <g id="Clip-24"></g>
                                    <path d="M1.51737107,2.16290901 C1.51737107,1.37132201 2.40124948,0.946391195 3.14627254,0.935795807 C3.99836478,0.935795807 4.98903354,1.34092998 5.69306918,2.18939748 L5.69306918,0.757904822 C5.3554109,0.567745493 4.48742558,0.0867706499 3.25947589,0.0867706499 C1.07375891,0.0867706499 0.129096436,1.47504528 0.129096436,2.54071824 C0.129096436,5.43298029 4.82313208,5.06046876 4.82313208,7.15640377 L4.82313208,7.15640377 L4.82313208,7.1566826 C4.82313208,8.16714801 3.74714256,8.52599706 2.93520126,8.52599706 C1.86701887,8.52599706 0.801903564,7.8506805 0.282450734,6.63527799 L0.0719371069,6.63527799 L0.0719371069,8.47776017 C0.63293501,8.96068679 1.8608847,9.48013962 2.87887841,9.48013962 C4.58362055,9.48013962 6.33966667,8.55220671 6.33966667,6.74318365 C6.33966667,3.88716897 1.51737107,4.04693627 1.51737107,2.16290901" id="Fill-23" fill="#FEFEFE" mask="url(#mask-4)"></path>
                                </g>
                                <path d="M72.1466725,53.1837444 L72.1466725,54.5775956 C72.3939912,54.2246019 72.7520038,54.1035914 73.149052,54.1035914 L75.7056075,54.1035914 L75.7056075,60.6774719 L75.7056075,60.6774719 C75.5779052,61.7609897 75.2363434,62.036191 74.9159723,62.1156564 L74.8426411,62.1340589 C74.833161,62.1360107 74.8239597,62.1382413 74.8142008,62.1399143 L74.8142008,62.3317465 L77.9772029,62.3317465 L77.9772029,62.1399143 L77.9766453,62.1399143 L77.9816642,62.1399143 L77.8846327,62.1156564 C77.5650981,62.0364698 77.2240939,61.7612686 77.0963916,60.6774719 L77.0963916,60.6774719 L77.0963916,54.1035914 L79.6582449,54.1035914 C80.0541778,54.1035914 80.4216704,54.2243231 80.6703832,54.5775956 L80.6703832,53.1837444 L72.1466725,53.1837444 Z" id="Fill-26" fill="#FEFEFE"></path>
                                <path d="M52.9158484,53.1837444 L52.9158484,54.5775956 C53.1631671,54.2246019 53.5211797,54.1035914 53.9182279,54.1035914 L56.4747834,54.1035914 L56.4747834,60.6774719 L56.4747834,60.6774719 C56.3470811,61.7609897 56.0055193,62.036191 55.6851482,62.1156564 L55.611817,62.1340589 C55.6023369,62.1360107 55.5931356,62.1382413 55.5833767,62.1399143 L55.5833767,62.3317465 L58.7463788,62.3317465 L58.7463788,62.1399143 L58.7461,62.1399143 L58.75084,62.1399143 L58.6538086,62.1156564 C58.334274,62.0364698 57.9932698,61.7612686 57.8655675,60.6774719 L57.8655675,60.6774719 L57.8655675,54.1035914 L60.4274208,54.1035914 C60.8233537,54.1035914 61.1908463,54.2243231 61.4395591,54.5775956 L61.4395591,53.1837444 L52.9158484,53.1837444 Z" id="Fill-28" fill="#FEFEFE"></path>
                                <path d="M67.8630688,58.7210614 L65.0926537,58.7210614 L66.4795342,55.8195981 L67.8630688,58.7210614 Z M70.5584797,60.9709084 L66.6604922,53.1456568 L62.8882553,61.0963801 C62.5505971,61.801531 62.3169409,62.0254283 61.9527941,62.1361222 L61.9527941,62.3315792 L64.0398067,62.3315792 L64.0398067,62.131661 C64.0013287,62.1171621 63.9678696,62.1004325 63.9349681,62.0834241 C63.8463015,62.0335143 63.7916516,61.973009 63.7623748,61.9013507 C63.7127438,61.7789461 63.7791044,61.4828329 63.8875677,61.2533591 L64.6565698,59.638399 L68.3002679,59.638399 L68.9602491,61.0236065 C69.1925111,61.5257721 69.115834,61.9699419 68.6418298,62.1400258 L68.6418298,62.3329734 L71.5561191,62.3329734 L71.5561191,62.1361222 C71.0506075,61.9702208 70.8791296,61.6147176 70.5584797,60.9709084 L70.5584797,60.9709084 Z" id="Fill-30" fill="#FEFEFE"></path>
                                <path d="M41.1374298,60.5506618 L41.1374298,60.5506618 L41.1335262,60.5506618 C41.1156813,60.6239931 41.0925388,60.691469 41.0671656,60.7564354 C40.8711509,61.2067394 40.4657379,61.4200413 39.8079874,61.4200413 L36.7573522,61.4200413 L36.7573522,57.8248589 L39.2673438,57.8248589 C39.6936688,57.8248589 39.988109,57.9946639 40.166,58.143557 C40.1712977,58.1488547 40.1779895,58.1549889 40.1827296,58.1602866 L40.1827296,58.1577771 C40.2195346,58.1895633 40.2527149,58.220513 40.2786457,58.2478379 L40.2736268,56.5140979 C40.0304906,56.7748002 39.6560273,56.9320581 39.273478,56.9348463 L36.7573522,56.9348463 L36.7573522,54.0428631 L40.0101363,54.0428631 C40.430327,54.0428631 40.721979,54.2070916 40.9001488,54.3540329 C40.907956,54.36184 40.9174361,54.3704836 40.9244067,54.3780119 L40.9244067,54.374666 C40.9614906,54.406731 41.0002474,54.4379595 41.0261782,54.4655633 L41.0261782,54.2650874 L41.0261782,53.1838002 L34.8234151,53.1838002 C35.1476897,53.3923621 35.2363564,53.7342027 35.2363564,54.3269868 L35.2363564,61.0575675 C35.2363564,61.8271273 34.9592034,62.0373621 34.6750797,62.1232405 C34.6550042,62.1293746 34.6349287,62.1349512 34.6148532,62.13997 L34.6148532,62.3315235 L41.3250797,62.3315235 L41.3250797,60.5506618 L41.1374298,60.5506618 Z" id="Fill-32" fill="#FEFEFE"></path>
                                <path d="M89.474091,60.5506618 L89.474091,60.5506618 L89.4701874,60.5506618 C89.4523426,60.6239931 89.4292,60.691469 89.4038268,60.7564354 C89.2078122,61.2067394 88.8023992,61.4200413 88.1446486,61.4200413 L85.0940134,61.4200413 L85.0940134,57.8248589 L87.604005,57.8248589 C88.03033,57.8248589 88.3247702,57.9946639 88.5026612,58.143557 C88.5079589,58.1488547 88.5146507,58.1549889 88.5193908,58.1602866 L88.5193908,58.1577771 C88.5561958,58.1895633 88.5893761,58.220513 88.6153069,58.2478379 L88.6102881,56.5140979 C88.3671518,56.7748002 87.9926885,56.9320581 87.6101392,56.9348463 L85.0940134,56.9348463 L85.0940134,54.0428631 L88.3467975,54.0428631 C88.7669883,54.0428631 89.0586403,54.2070916 89.2368101,54.3540329 C89.2446172,54.36184 89.2540973,54.3704836 89.2610679,54.3780119 L89.2610679,54.374666 C89.2981518,54.406731 89.3369086,54.4379595 89.3628394,54.4655633 L89.3628394,54.2650874 L89.3628394,53.1838002 L83.1600763,53.1838002 C83.4843509,53.3923621 83.5730176,53.7342027 83.5730176,54.3269868 L83.5730176,61.0575675 C83.5730176,61.8271273 83.2958646,62.0373621 83.0117409,62.1232405 C82.9916654,62.1293746 82.9715899,62.1349512 82.9515145,62.13997 L82.9515145,62.3315235 L89.6617409,62.3315235 L89.6617409,60.5506618 L89.474091,60.5506618 Z" id="Fill-34" fill="#FEFEFE"></path>
                                <polygon id="Fill-36" fill="#FEFEFE" points="91.4496289 53.3861721 90.8702285 53.3861721 90.8702285 53.1837444 92.2794151 53.1837444 92.2794151 53.3861721 91.6983417 53.3861721 91.6983417 55.0248325 91.4496289 55.0248325"></polygon>
                                <path d="M94.0965241,54.2171015 C94.0825828,53.9589086 94.0641803,53.6488541 94.0641803,53.4207744 L94.0594403,53.4207744 C93.9930797,53.6340763 93.9158449,53.8674537 93.8199287,54.1209065 L93.4847799,55.0151015 L93.2993606,55.0151015 L92.9887484,54.1370784 C92.8975723,53.8760973 92.8234046,53.6407681 92.7693124,53.4207744 L92.7645723,53.4207744 C92.7584382,53.6508059 92.7444969,53.9577933 92.7274885,54.2360616 L92.6764633,55.0248604 L92.4433648,55.0248604 L92.5746918,53.1837723 L92.8897652,53.1837723 L93.2126457,54.0749002 C93.2915535,54.3007493 93.353174,54.5037346 93.4041992,54.6950092 L93.4103333,54.6950092 C93.4613585,54.5098688 93.529392,54.3077199 93.614434,54.0749002 L93.9512558,53.1837723 L94.2663291,53.1837723 L94.3839937,55.0248604 L94.1428092,55.0248604 L94.0965241,54.2171015 Z" id="Fill-38" fill="#FEFEFE"></path>
                                <path d="M62.5298803,34.1219168 C62.5298803,32.6115164 63.1446916,32.0611138 63.8448237,31.8358224 L59.5570375,31.8358224 C60.2566119,32.0611138 60.8689138,32.6162564 60.8689138,34.126378 L60.8689138,42.3311117 L51.8419222,31.8358224 L47.5892681,31.8358224 C48.2305679,32.0965247 49.539656,33.2528161 49.539656,34.6040069 L49.539656,44.517944 C49.539656,46.2179461 49.1626832,46.7022669 48.3593855,46.873466 L48.3593855,47.400726 L52.3783834,47.400726 L52.3783834,46.873466 C51.5753646,46.7022669 51.2003436,46.2123696 51.2003436,44.5123675 L51.2003436,34.9360887 L61.9373751,47.400726 L62.5298803,47.400726 L62.5298803,34.1219168 Z" id="Fill-40" fill="#FEFEFE"></path>
                                <path d="M98.4891488,31.8357945 L98.4891488,34.6959916 C98.9018113,33.9027317 99.5768491,33.3919224 100.454593,33.3919224 L103.580512,33.3919224 L103.580512,44.5140126 C103.580512,46.2140147 103.11069,46.7027966 102.307392,46.8734382 L102.307392,47.4006981 L107.40935,47.4006981 L107.40935,46.8734382 C106.606052,46.7027966 106.137904,46.2140147 106.137904,44.5140126 L106.137904,33.3919224 L115.900159,33.3919224 L115.900159,44.5140126 C115.900159,46.2140147 115.428665,46.7027966 114.625367,46.8734382 L114.625367,47.4006981 L119.725931,47.4006981 L119.725931,46.8734382 C118.924027,46.7027966 118.455878,46.2140147 118.455878,44.5140126 L118.455878,33.3919224 L121.583191,33.3919224 C122.459262,33.3919224 123.134579,33.9027317 123.547241,34.6959916 L123.547241,31.8357945 L98.4891488,31.8357945 Z" id="Fill-42" fill="#FEFEFE"></path>
                                <path d="M35.6619285,41.1987157 L38.0433813,36.2166528 L40.4189788,41.1987157 L35.6619285,41.1987157 Z M21.6411633,39.0436696 L20.1095721,39.0436696 L20.1095721,33.2078415 L21.6411633,33.2078415 C24.2158426,33.2078415 25.2101361,34.5715795 25.2101361,36.1533593 C25.2101361,37.7348604 24.2158426,39.0436696 21.6411633,39.0436696 L21.6411633,39.0436696 Z M45.0477692,45.0618499 L38.3539935,31.6249463 L31.8765868,45.2776612 C31.3147524,46.4504034 30.9149159,46.7158457 30.3120941,46.8237514 C29.2539495,46.8661329 28.972614,46.7010679 27.7114841,44.6703782 L24.59644,39.8910218 C26.5058405,39.2695187 27.6978216,37.9729778 27.6978216,36.0906235 C27.6978216,33.1676906 25.1228635,31.8357388 22.373918,31.8357388 L16.238352,31.8357388 C16.9384841,32.0610302 17.5499495,32.6161727 17.5499495,34.1265732 L17.5499495,44.5125627 C17.5499495,46.2125648 17.0815218,46.7027409 16.2782241,46.8733824 L16.2782241,47.4009212 L21.3787881,47.4009212 L21.3787881,46.8733824 C20.5757692,46.7027409 20.1095721,46.2125648 20.1095721,44.5125627 L20.1095721,40.3045208 L21.9283541,40.3067514 L26.4785155,47.3967388 L33.8540208,47.3967388 L33.8540208,47.0554558 C33.787939,47.0306403 33.7305008,47.0016423 33.6738992,46.9723656 C33.5216602,46.886766 33.4276958,46.7827639 33.3775071,46.6595229 C33.2924652,46.4495669 33.406505,45.9409883 33.5927608,45.547286 L34.9132807,42.7740826 L41.1698572,42.7740826 L42.3032849,45.1524683 C42.7020061,46.0148771 42.5704002,46.7774662 41.7562283,47.0696759 L41.7562283,47.4009212 L46.7603184,47.4009212 L46.7603184,47.0629841 C45.8926119,46.7780239 45.5981717,46.1676738 45.0477692,45.0618499 L45.0477692,45.0618499 Z" id="Fill-44" fill="#FEFEFE"></path>
                                <path d="M6.76875199,45.7554574 L4.04991971,45.7554574 L4.04991971,37.9477719 L5.97883795,37.9477719 C9.58991342,37.9477719 10.955882,39.8212038 10.955882,41.65086 C10.955882,43.8569312 9.56565556,45.7554574 6.76875199,45.7554574 M9.29993438,33.1748285 C9.29993438,34.9364512 8.06278344,36.4423904 5.37462201,36.4423904 L4.04991971,36.4423904 L4.04991971,29.8213883 L5.37462201,29.8213883 C8.06278344,29.8213883 9.29993438,31.4123694 9.29993438,33.1748285 M9.29519434,36.9704868 C10.5354124,36.4744553 12.0803872,34.9897069 12.0803872,33.0507509 C12.0803872,29.826686 9.41732013,28.357273 6.57496792,28.357273 L-2.78825974e-05,28.357273 C0.723804403,28.589535 1.35562411,29.1641954 1.35562411,30.7258998 L1.35562411,44.4081702 C1.35562411,46.1656105 0.87158218,46.6733526 0.0406807128,46.8495706 L0.0406807128,47.3946755 L6.74588826,47.3946755 C11.5645591,47.3946755 13.7987918,45.1498474 13.7987918,41.923273 C13.7987918,39.2245161 11.7435654,37.4662394 9.29519434,36.9704868" id="Fill-46" fill="#FEFEFE"></path>
                                <path d="M79.0110897,42.136547 C78.055553,45.0371738 76.1531233,46.193744 73.8042931,46.193744 C70.8902826,46.193744 68.4767648,43.6898866 68.4767648,39.5576853 C68.4767648,35.4254841 70.9572008,32.8480166 73.8703748,32.8480166 C76.3039681,32.8480166 78.0195845,34.2828551 79.483421,36.3478405 L79.483421,33.2118845 C77.6808109,32.1010417 75.6517941,31.5748971 74.0284692,31.5748971 C69.4208696,31.5748971 65.6731694,34.8865134 65.6731694,39.5576853 C65.6731694,44.2294149 69.1289388,47.5407524 73.7359807,47.5407524 C75.6517941,47.5407524 77.4273581,47.0505763 79.483421,45.6291214 L79.483421,42.136547 L79.0110897,42.136547 Z" id="Fill-49" fill="#FEFEFE"></path>
                                <path d="M89.7721281,46.1684266 C86.6835725,46.1684266 84.7100421,43.0996677 84.7100421,39.5582987 C84.7100421,36.0169298 86.6835725,32.947892 89.7721281,32.947892 C92.8606836,32.947892 94.834214,36.0169298 94.834214,39.5582987 C94.834214,43.0996677 92.8606836,46.1684266 89.7721281,46.1684266 M89.7721281,31.5755105 C85.4277403,31.5755105 81.9047738,35.1492233 81.9047738,39.5582987 C81.9047738,43.9670954 85.4277403,47.5416447 89.7721281,47.5416447 C94.1165159,47.5416447 97.6394824,43.9670954 97.6394824,39.5582987 C97.6394824,35.1492233 94.1165159,31.5749528 89.7721281,31.5755105" id="Fill-51" fill="#FEFEFE"></path>
                            </g>
                        </g>
                    </g>
                </g>
            </g>
        </g>
    </g>
</svg>