<?xml version="1.0" encoding="UTF-8" standalone="no"?>
<svg width="138px" height="139px" viewBox="0 0 138 139" version="1.1" xmlns="http://www.w3.org/2000/svg" xmlns:xlink="http://www.w3.org/1999/xlink">
    <!-- Generator: sketchtool 42 (36781) - http://www.bohemiancoding.com/sketch -->
    <title>493ABFBA-3DF2-4EB9-BDD1-155AEC0B0315</title>
    <desc>Created with sketchtool.</desc>
    <defs>
        <filter x="-50%" y="-50%" width="200%" height="200%" filterUnits="objectBoundingBox" id="filter-1">
            <feOffset dx="0" dy="0" in="SourceAlpha" result="shadowOffsetOuter1"></feOffset>
            <feGaussianBlur stdDeviation="25" in="shadowOffsetOuter1" result="shadowBlurOuter1"></feGaussianBlur>
            <feColorMatrix values="0 0 0 0 0   0 0 0 0 0   0 0 0 0 0  0 0 0 0.5 0" type="matrix" in="shadowBlurOuter1" result="shadowMatrixOuter1"></feColorMatrix>
            <feMerge>
                <feMergeNode in="shadowMatrixOuter1"></feMergeNode>
                <feMergeNode in="SourceGraphic"></feMergeNode>
            </feMerge>
        </filter>
    </defs>
    <g id="P4_BE_DESIGN_Visit-our-vineyard" stroke="none" stroke-width="1" fill="none" fill-rule="evenodd">
        <g id="P4.1.2_BE_DESIGN_Visit-our-vineyard_Landing-Pg_LRG" transform="translate(-669.000000, -416.000000)" fill="#FFFFFF">
            <g id="Season" transform="translate(717.000000, 463.000000)">
                <g id="icn_spring" filter="url(#filter-1)">
                    <path d="M45.9515243,1.34225 C45.7654721,0.55475 45.0629949,0 44.2614057,0 L44.2509729,0 C35.0926866,0.05775 12.8220711,1.603 3.8307101,14.665 C-0.839720338,21.4515 -1.24138431,30.26275 2.63615101,40.85375 C2.66571069,40.936 2.72656887,40.992 2.76656139,41.06725 C1.38073374,44.52 0.843442975,46.81775 0.829532535,46.8825 C0.627831146,47.8275 1.2277189,48.7585 2.16667364,48.9615 C2.28838999,48.98775 2.41010635,49 2.5318227,49 C3.33341184,49 4.05501595,48.43825 4.23063526,47.6175 C4.26715017,47.439 8.6976255,29.46475 24.3607816,18.956 C25.160632,18.4205 25.3762438,17.33375 24.8424306,16.52875 C24.3086175,15.72375 23.2305583,15.505 22.430708,16.044 C13.5488917,22.00275 8.0786109,30.058 4.86182151,36.442 C2.55964359,28.4305 3.16300895,21.78225 6.69104445,16.65825 C13.6340931,6.57125 30.102316,4.13875 40.0430646,3.62425 C37.9043344,6.776 35.5673803,12.5545 35.5673803,22.75 C35.5673803,28.21 34.0285378,32.4135 30.9960618,35.245 C26.1343628,39.77925 18.2367101,40.2045 12.4603997,39.767 C11.5005793,39.68825 10.6676917,40.41625 10.5946618,41.3805 C10.521632,42.343 11.2397585,43.183 12.1961013,43.2565 C13.3524067,43.34575 14.5869583,43.4 15.8701964,43.4 C21.7508352,43.4 28.6104212,42.23975 33.3590979,37.8105 C37.1323049,34.29125 39.0449905,29.225 39.0449905,22.75175 C39.0449905,6.8285 45.0090919,3.33375 45.0386516,3.318 C45.7619945,2.95225 46.141054,2.13325 45.9515243,1.34225 Z" id="Shape"></path>
                </g>
            </g>
        </g>
    </g>
</svg>