<?xml version="1.0" encoding="UTF-8" standalone="no"?>
<svg width="11px" height="9px" viewBox="0 0 11 9" version="1.1" xmlns="http://www.w3.org/2000/svg" xmlns:xlink="http://www.w3.org/1999/xlink">
    <!-- Generator: Sketch 42 (36781) - http://www.bohemiancoding.com/sketch -->
    <title>Page 1</title>
    <desc>Created with Sketch.</desc>
    <defs></defs>
    <g id="P4_BE_DESIGN_Visit-our-vineyard" stroke="none" stroke-width="1" fill="none" fill-rule="evenodd">
        <g id="P4.4_BE_DESIGN_Visit-our-vineyard_Private-Events_LRG" transform="translate(-537.000000, -6318.000000)" fill="#D50032">
            <g id="Form" transform="translate(414.000000, 5551.000000)">
                <g id="incomplete_checkbox" transform="translate(116.000000, 759.000000)">
                    <g id="Page-1" transform="translate(7.000000, 8.000000)">
                        <path d="M10.272,2.1005 L4.643,7.7785 C4.409,8.0105 4.098,8.1415 3.768,8.1415 L3.767,8.1415 C3.495,8.1415 3.225,8.0475 3.01,7.8825 L3.027,7.8595 C2.79,7.6645 3.065,7.9115 0.362,5.2105 C0.128,4.9775 3.83693077e-13,4.6675 3.83693077e-13,4.3355 C3.83693077e-13,4.0055 0.128,3.6945 0.362,3.4615 C0.829,2.9925 1.646,2.9925 2.111,3.4615 L3.769,5.1495 L8.523,0.3495 C8.99,-0.1165 9.806,-0.1165 10.272,0.3495 C10.506,0.5835 10.634,0.8955 10.634,1.2255 C10.635,1.5575 10.507,1.8685 10.272,2.1005 Z" id="Fill-3"></path>
                    </g>
                </g>
            </g>
        </g>
    </g>
</svg>