<?xml version="1.0" standalone="no"?>
<!DOCTYPE svg PUBLIC "-//W3C//DTD SVG 20010904//EN"
 "http://www.w3.org/TR/2001/REC-SVG-20010904/DTD/svg10.dtd">
<svg version="1.0" xmlns="http://www.w3.org/2000/svg"
 width="16.000000pt" height="16.000000pt" viewBox="0 0 16.000000 16.000000"
 preserveAspectRatio="xMidYMid meet">
<metadata>
Created by potrace 1.11, written by Peter Selinger 2001-2013
</metadata>
<g transform="translate(0.000000,16.000000) scale(0.006154,-0.006154)"
fill="#000000" stroke="none">
<path d="M50 2347 l-30 -8 0 -1038 c0 -819 3 -1041 13 -1048 18 -15 2495 -15
2524 -1 l23 11 0 1028 c0 923 -1 1029 -16 1043 -8 9 -18 16 -22 17 -41 6
-2470 2 -2492 -4z m2427 -113 c2 -10 3 -48 2 -84 0 -36 0 -72 0 -80 0 -8 0
-44 0 -80 0 -36 0 -72 0 -80 0 -8 0 -44 0 -80 0 -36 0 -72 0 -80 0 -8 0 -44 0
-80 0 -36 0 -72 0 -80 0 -8 0 -44 0 -80 0 -36 0 -72 0 -80 0 -8 0 -44 0 -80 0
-36 0 -72 0 -80 0 -8 0 -44 0 -80 0 -36 0 -72 0 -80 0 -8 0 -44 0 -80 0 -36 0
-72 0 -80 0 -8 0 -44 0 -80 0 -36 0 -72 0 -80 0 -8 0 -44 0 -80 0 -36 0 -72 0
-80 0 -8 0 -44 0 -80 0 -36 0 -72 0 -80 2 -74 1 -123 -3 -128 -4 -4 -2148 -6
-2328 -3 l-36 1 0 952 c0 524 3 955 8 958 4 3 536 5 1181 4 1151 0 1172 -1
1176 -20z"/>
<path d="M336 2033 c-3 -4 2 -23 23 -88 9 -26 6 -1270 -3 -1315 -4 -19 -11
-39 -16 -45 -24 -29 9 -32 290 -29 284 4 341 6 370 17 8 3 28 8 45 12 54 12
150 64 187 102 59 61 70 73 62 73 -4 0 0 8 9 18 9 9 18 28 21 42 3 14 10 43
15 64 16 65 7 185 -17 239 -50 112 -165 203 -280 223 -25 4 -22 11 16 36 197
131 229 388 66 538 -59 54 -97 72 -224 108 -19 5 -559 10 -564 5z m480 -133
c8 -7 14 -10 14 -6 0 11 73 -31 103 -59 30 -29 69 -99 60 -109 -3 -3 -2 -11 3
-18 6 -7 8 -29 6 -48 -2 -19 -4 -45 -5 -57 0 -13 -4 -23 -7 -23 -3 0 -12 -16
-18 -35 -24 -65 -111 -123 -211 -142 -23 -4 -126 -7 -161 -4 -13 1 -15 36 -15
253 0 150 4 256 10 260 15 11 205 1 221 -12z m64 -626 c25 -3 48 -11 52 -18 4
-6 8 -8 8 -3 0 4 19 -2 42 -14 58 -30 122 -100 138 -151 15 -51 16 -154 1
-172 -6 -7 -8 -15 -5 -18 10 -11 -37 -91 -74 -125 -38 -36 -111 -74 -152 -79
-14 -2 -85 -5 -158 -7 -112 -2 -135 0 -141 13 -5 11 -7 541 -2 583 1 8 221 2
291 -9z"/>
<path d="M1330 2024 c0 -1 4 -14 10 -29 20 -53 22 -88 24 -395 1 -311 1 -316
24 -347 55 -78 74 -143 77 -271 4 -136 -33 -264 -104 -362 -35 -49 -30 -64 21
-61 18 1 94 2 168 2 74 -1 142 -1 150 -1 8 0 140 1 293 1 180 1 279 5 284 11
8 14 8 146 0 155 -3 3 -14 2 -24 -1 -10 -4 -20 -8 -23 -8 -3 0 -16 -5 -30 -11
-30 -12 -599 -17 -606 -5 -6 10 -5 580 1 586 2 3 93 4 202 4 191 -1 229 -5
307 -38 16 -6 18 -4 13 9 -4 10 -1 17 6 17 8 0 8 3 1 8 -6 4 -10 41 -9 88 1
81 0 82 -22 73 -13 -5 -23 -6 -23 -3 0 4 -7 0 -17 -7 -12 -11 -69 -15 -240
-17 l-223 -4 0 241 c0 133 3 242 8 242 33 6 52 5 52 -3 0 -5 6 -6 13 -1 17 11
147 11 147 0 0 -6 5 -6 13 0 20 15 277 7 340 -11 30 -9 59 -16 64 -16 4 0 8
35 8 78 l-1 77 -452 1 c-249 0 -452 -1 -452 -2z"/>
</g>
</svg>
